<svg width="856" height="395" viewBox="0 0 856 395" fill="none" xmlns="http://www.w3.org/2000/svg">
<g filter="url(#filter0_dii_76_647)">
<rect width="142.759" height="142.759" rx="13" transform="matrix(1 0 -0.518922 0.854821 153.39 0)" fill="#151515" shape-rendering="crispEdges"/>
<path d="M142.644 88.1586L173.336 27.1187H243.278L199.882 88.1257L167.093 94.9152" fill="#E44D26"/>
<path d="M170.302 89.7247L205.266 32.1289H233.855L196.787 84.2041" fill="#F16529"/>
<path d="M178.757 39.5938H200.734L196.192 47.0754H183.816L179.973 54.7384H191.54L187.009 62.2036H167.422L178.757 39.5938ZM165.527 65.9609H174.318L171.303 71.943L179.736 74.1842L174.994 81.9954L159.628 77.7108" fill="#EBEBEB"/>
<path d="M222.634 39.5938H200.695L196.154 47.0754H217.283L222.634 39.5938ZM211.84 54.7384H191.502L186.96 62.2201H197.756L190.832 71.943L179.697 74.1842L174.975 81.9625L195.485 77.7108" fill="#1E2235"/>
</g>
<g filter="url(#filter1_dii_76_647)">
<rect width="142.759" height="142.759" rx="13" transform="matrix(1 0 -0.518922 0.854821 312.007 0)" fill="#151515" shape-rendering="crispEdges"/>
<path d="M401.89 27.1187L358.483 88.1285L325.725 94.9152L301.28 88.138L331.958 27.1187H401.89Z" fill="#264DE4"/>
<path d="M355.387 84.2433L392.481 32.1077H363.896L328.917 89.7275L355.387 84.2433Z" fill="#2965F1"/>
<path d="M329.781 54.739L326.022 62.2227H345.614L350.157 54.739H329.781Z" fill="#EBEBEB"/>
<path d="M359.352 39.5916H359.322H337.399L333.652 47.0754H354.809L359.352 39.5916Z" fill="#EBEBEB"/>
<path d="M333.632 81.9613L338.358 74.1751L338.315 74.1838L329.931 71.9333L332.931 65.9646H328.193H324.142L318.235 77.7152L333.585 81.9709L333.632 81.9613Z" fill="#EBEBEB"/>
<path d="M356.365 62.2226L349.456 71.9285L338.324 74.1813L333.598 81.9673L354.127 77.7152L355.026 76.4508L369.044 56.7485L370.477 54.7389L381.253 39.5916H359.322L354.779 47.0754H367.116L361.667 54.7389H350.127L345.584 62.2226H356.365Z" fill="#1E2235"/>
</g>
<g filter="url(#filter2_dii_76_647)">
<rect width="142.759" height="142.759" rx="13" transform="matrix(1 0 -0.518922 0.854821 470.624 0)" fill="#151515" shape-rendering="crispEdges"/>
<path d="M565.196 27.1187H485.885L444.729 94.9152H524.04L565.196 27.1187Z" fill="#F7DF1E"/>
<path d="M507.009 80.085C507.253 82.3147 508.336 83.9537 512.012 83.9537C515.1 83.9537 517.874 82.6343 518.981 80.8114C520.307 78.6268 518.75 77.8531 516.122 76.5821L514.674 75.8988C510.485 73.9402 508.401 71.4866 511.55 66.2997C514.451 61.5216 520.918 57.8843 527.573 57.8843C532.312 57.8843 534.863 59.294 535.077 62.9852L527.34 66.1705C527.251 64.212 526.341 63.4404 524.201 63.4404C522.018 63.4404 519.916 64.6241 518.977 66.1705C517.817 68.0817 518.732 68.8555 521.211 70.0392L522.66 70.7215C527.583 73.0427 529.722 75.4091 526.492 80.7296C523.01 86.4654 515.831 89.6077 508.752 89.6077C501.831 89.6077 499.071 86.7882 499.126 83.0928L507.009 80.085ZM480.346 80.637C480.439 82.4126 480.593 83.9139 483.154 83.9139C485.602 83.9139 487.644 83.0949 489.577 79.9106L502.727 58.248H510.18L496.977 79.9967C492.973 86.5934 486.626 89.5959 480.021 89.5959C474.054 89.5959 472.201 86.9561 472.374 83.7766L480.346 80.637Z" fill="black"/>
</g>
<g filter="url(#filter3_dii_76_647)">
<rect width="142.759" height="142.759" rx="13" transform="matrix(1 0 -0.518922 0.854821 629.24 0)" fill="#151515" shape-rendering="crispEdges"/>
<path d="M644.502 27.1187H723.813L682.657 94.9152H603.346L644.502 27.1187Z" fill="#017ACB"/>
<path d="M667.343 52.2244H671.147L667.739 57.8388H657.454L642.29 82.8176L641.979 82.8812C641.556 82.9659 636.661 82.9659 635.665 82.8706L634.861 82.807L650.018 57.8388H639.733L643.141 52.2244L646.419 52.1926C648.217 52.1714 652.802 52.1714 656.606 52.1926C660.41 52.2138 665.236 52.2244 667.343 52.2244V52.2244ZM679.414 80.1693C677.073 81.5358 674.986 82.2985 671.905 82.9235C670.561 83.199 670.356 83.2096 667.711 83.199C665.065 83.1884 664.855 83.1884 663.739 82.9024C660.85 82.1714 659.029 80.7413 658.423 78.718C658.25 78.146 658.115 76.9596 658.205 76.8113C658.23 76.7689 658.412 76.6735 658.612 76.61C658.812 76.5464 659.256 76.3663 659.612 76.2286C659.968 76.0909 660.618 75.8367 661.043 75.6884C661.467 75.5401 662.73 75.0528 663.836 74.6185C664.942 74.1841 665.923 73.8346 666.01 73.8346C666.096 73.8346 666.167 73.9829 666.182 74.163C666.276 75.2329 667.181 76.5994 668.125 77.0655C668.714 77.3409 670.201 77.6481 671.006 77.6481C671.75 77.6481 673.28 77.3727 674.185 77.0867C675.152 76.7795 675.735 76.4723 676.579 75.8579C677.165 75.4235 677.273 75.307 677.762 74.4808C678.225 73.718 678.304 73.5062 678.268 73.1566C678.166 72.182 677.533 71.6735 674.59 70.2329C671.556 68.7392 670.325 67.8494 669.614 66.6524C669.088 65.7625 669.025 65.5189 669.031 64.4066C669.032 62.9765 669.203 62.5104 670.484 60.3812C671.378 58.8875 671.711 58.4003 672.205 57.8918C672.929 57.1291 674.665 55.6566 675.275 55.2859C676.55 54.4914 676.983 54.2477 677.778 53.8558C680.184 52.6693 683.287 51.8854 685.848 51.8113C686.133 51.8113 687.049 51.8537 687.897 51.9066C690.315 52.0867 691.716 52.6164 692.689 53.7498C693.426 54.5973 694.113 56.5888 693.766 56.8536C693.546 57.0125 686.891 59.8303 686.517 59.9151C686.287 59.9681 686.189 59.9045 686.084 59.6291C685.446 57.9024 684.99 57.5316 683.406 57.4469C682.279 57.3833 681.589 57.4998 680.538 57.9447C679.437 58.4108 678.61 59.1206 678.012 60.1058C677.15 61.5464 677.383 62.2244 679.151 63.2308C680.295 63.8769 681.287 64.4066 681.387 64.4066C681.535 64.4066 683.897 65.7625 684.47 66.1863C687.16 68.1248 687.524 70.1163 685.85 73.5485C684.578 76.1333 682.289 78.4956 679.414 80.1693V80.1693Z" fill="#1E2235"/>
</g>
<g filter="url(#filter4_dii_76_647)">
<rect width="107.07" height="107.07" rx="13" transform="matrix(1 0 -0.518922 0.854821 74.3125 132.052)" fill="#151515" shape-rendering="crispEdges"/>
<path d="M88.7939 170.513H100.013L99.5525 171.272H89.3619L85.896 176.981H95.4789L95.0184 177.74H85.4355L81.6302 184.008H91.9378L91.4773 184.766H80.1413L88.7939 170.513ZM101.018 170.513H102.21L103.687 176.781L112.892 170.513L125.069 162.551L103.965 177.44L105.735 184.766H104.496L102.887 178.099L93.1601 184.766H91.9447L102.656 177.44L101.018 170.513ZM114.371 171.272L114.832 170.513H127.617L127.156 171.272H121.266L113.074 184.766H112.046L120.238 171.272H114.371Z" fill="white"/>
<path d="M74.7583 170.513H76.0438L80.0715 193.079L77.7922 184.766L75.1791 171.591L67.1341 184.766H66.1057L74.7583 170.513Z" fill="white"/>
<path d="M119.459 183.779C119.672 183.779 119.911 183.64 120.02 183.461C120.128 183.282 120.057 183.144 119.845 183.144C119.635 183.144 119.393 183.282 119.284 183.461C119.176 183.64 119.249 183.779 119.459 183.779ZM120.977 182.944C120.656 183.472 120.894 183.817 121.547 183.817C122.243 183.817 122.879 183.461 123.254 182.844L124.575 180.668H124.014L122.695 182.841C122.487 183.184 122.173 183.368 121.815 183.368C121.495 183.368 121.381 183.197 121.527 182.944H120.977ZM123.943 182.916C123.649 183.466 123.974 183.817 124.774 183.817C125.629 183.817 126.388 183.449 126.745 182.861C127.026 182.398 126.876 182.143 126.225 181.996L125.878 181.912C125.464 181.819 125.351 181.693 125.484 181.473C125.652 181.196 126.057 181.015 126.5 181.015C126.92 181.015 127.103 181.192 126.983 181.476H127.529C127.81 180.958 127.496 180.594 126.763 180.594C125.976 180.594 125.229 180.958 124.897 181.505C124.622 181.957 124.757 182.226 125.331 182.356L125.738 182.451C126.158 182.547 126.282 182.688 126.14 182.922C125.975 183.195 125.524 183.393 125.074 183.393C124.591 183.393 124.368 183.208 124.498 182.916H123.943Z" fill="white"/>
</g>
<g filter="url(#filter5_dii_76_647)">
<rect width="142.759" height="142.759" rx="13" transform="matrix(1 0 -0.518922 0.854821 74.3125 132.052)" fill="#151515" shape-rendering="crispEdges"/>
<path d="M105.023 199.046C108.885 199.046 113.64 196.37 115.644 193.069C117.648 189.768 116.142 187.092 112.28 187.092C108.419 187.092 103.664 189.768 101.66 193.069C99.6557 196.37 101.162 199.046 105.023 199.046Z" fill="#61DAFB"/>
<path fill-rule="evenodd" clip-rule="evenodd" d="M77.7007 189.92C75.3755 191.142 74.2033 192.21 73.6817 193.069C73.16 193.928 73.0358 194.996 73.8774 196.218C74.719 197.44 76.4245 198.64 79.0102 199.692C84.1676 201.791 92.4093 203.136 102.541 203.136C112.672 203.136 122.546 201.791 130.252 199.692C134.115 198.64 137.278 197.44 139.603 196.218C141.928 194.996 143.1 193.928 143.622 193.069C144.143 192.21 144.268 191.142 143.426 189.92C142.584 188.698 140.879 187.498 138.293 186.446C133.136 184.347 124.894 183.002 114.763 183.002C104.631 183.002 94.7577 184.347 87.0515 186.446C83.188 187.498 80.0255 188.698 77.7007 189.92ZM87.7046 182.374C96.2683 180.041 106.818 178.644 117.408 178.644C127.998 178.644 136.852 180.041 142.583 182.374C145.442 183.538 147.629 184.976 148.806 186.685C149.983 188.393 150.251 190.547 148.72 193.069C147.189 195.591 144.306 197.745 141.055 199.453C137.804 201.162 133.87 202.6 129.599 203.764C121.035 206.097 110.485 207.494 99.8949 207.494C89.305 207.494 80.4512 206.097 74.7198 203.764C71.8612 202.6 69.674 201.162 68.4971 199.453C67.3204 197.745 67.052 195.591 68.5831 193.069C70.1143 190.547 72.9974 188.393 76.2482 186.685C79.4993 184.976 83.4332 183.538 87.7046 182.374Z" fill="#61DAFB"/>
<path fill-rule="evenodd" clip-rule="evenodd" d="M111.135 167.166C109.446 166.605 108.014 166.751 106.882 167.181C105.751 167.61 104.371 168.532 102.843 170.315C101.314 172.098 99.8576 174.5 98.635 177.414C96.1965 183.225 94.8851 190.602 95.3978 198.102C95.9104 205.602 98.1384 211.636 101.228 215.348C102.777 217.209 104.48 218.41 106.169 218.972C107.857 219.533 109.29 219.387 110.421 218.957C111.553 218.527 112.932 217.606 114.461 215.822C115.989 214.04 117.446 211.638 118.669 208.724C121.107 202.913 122.418 195.536 121.906 188.036C121.393 180.535 119.165 174.502 116.076 170.79C114.527 168.929 112.824 167.728 111.135 167.166ZM121.345 167.408C124.778 171.533 127.108 178.017 127.644 185.856C128.18 193.696 126.831 201.577 124.121 208.035C122.77 211.256 121.031 214.241 118.893 216.734C116.756 219.227 114 221.47 110.679 222.732C107.358 223.993 104.443 223.903 102.082 223.118C99.7204 222.333 97.6714 220.787 95.959 218.73C92.5258 214.605 90.1953 208.121 89.6594 200.281C89.1236 192.442 90.4723 184.561 93.1821 178.103C94.5337 174.882 96.273 171.897 98.4104 169.404C100.548 166.911 103.303 164.667 106.624 163.406C109.945 162.145 112.861 162.235 115.222 163.02C117.583 163.804 119.632 165.351 121.345 167.408Z" fill="#61DAFB"/>
<path fill-rule="evenodd" clip-rule="evenodd" d="M142.086 170.315C142.722 168.532 142.462 167.611 141.852 167.181C141.242 166.751 139.987 166.605 137.617 167.166C135.247 167.728 132.084 168.929 128.276 170.79C120.68 174.502 111.127 180.535 101.508 188.036C91.8897 195.536 84.2442 202.913 79.6274 208.724C77.3127 211.638 75.8535 214.04 75.2173 215.823C74.581 217.606 74.8412 218.528 75.451 218.957C76.0608 219.387 77.3159 219.533 79.6863 218.972C82.0562 218.41 85.2185 217.209 89.0268 215.348C96.6228 211.636 106.176 205.603 115.795 198.102C125.413 190.602 133.059 183.225 137.676 177.414C139.99 174.5 141.45 172.098 142.086 170.315ZM142.291 178.103C137.161 184.561 128.941 192.442 118.887 200.282C108.833 208.121 98.6306 214.605 90.1894 218.73C85.9791 220.787 82.0526 222.334 78.7383 223.118C75.4244 223.903 72.4002 223.993 70.6104 222.732C68.8207 221.471 68.7885 219.227 69.6781 216.734C70.5678 214.241 72.4526 211.256 75.0116 208.035C80.1421 201.577 88.3618 193.696 98.4159 185.857C108.47 178.017 118.672 171.533 127.114 167.408C131.324 165.351 135.25 163.804 138.565 163.02C141.879 162.235 144.903 162.145 146.693 163.406C148.482 164.668 148.514 166.911 147.625 169.404C146.735 171.897 144.85 174.882 142.291 178.103Z" fill="#61DAFB"/>
</g>
<g filter="url(#filter6_dii_76_647)">
<rect width="142.759" height="142.759" rx="13" transform="matrix(1 0 -0.518922 0.854821 232.929 132.052)" fill="#151515" shape-rendering="crispEdges"/>
<path d="M252.237 183.333H267.196L266.582 184.345H252.995L248.373 191.957H261.151L260.537 192.968H247.759L242.686 201.326H256.429L255.815 202.338H240.701L252.237 183.333ZM268.536 183.333H270.126L272.095 191.691L284.368 183.333L300.604 172.717L272.466 192.569L274.825 202.338H273.174L271.029 193.448L258.059 202.338H256.438L270.72 192.569L268.536 183.333ZM286.34 184.345L286.954 183.333H304.001L303.387 184.345H295.534L284.611 202.338H283.24L294.162 184.345H286.34Z" fill="white"/>
<path d="M233.523 183.333H235.237L240.608 213.421L237.569 202.338L234.084 184.77L223.358 202.338H221.987L233.523 183.333Z" fill="white"/>
<path d="M293.125 201.021C293.409 201.021 293.728 200.836 293.873 200.598C294.017 200.359 293.923 200.175 293.639 200.175C293.359 200.175 293.037 200.359 292.892 200.598C292.747 200.836 292.845 201.021 293.125 201.021ZM295.149 199.907C294.721 200.612 295.039 201.072 295.909 201.072C296.836 201.072 297.685 200.598 298.185 199.774L299.946 196.873H299.199L297.439 199.771C297.162 200.228 296.743 200.473 296.266 200.473C295.839 200.473 295.687 200.246 295.883 199.907H295.149ZM299.103 199.871C298.712 200.604 299.144 201.072 300.211 201.072C301.352 201.072 302.364 200.581 302.84 199.797C303.214 199.18 303.014 198.839 302.146 198.643L301.683 198.532C301.132 198.407 300.98 198.24 301.158 197.947C301.382 197.578 301.922 197.336 302.513 197.336C303.073 197.336 303.317 197.572 303.157 197.95H303.884C304.26 197.26 303.841 196.774 302.864 196.774C301.814 196.774 300.818 197.26 300.375 197.99C300.009 198.592 300.189 198.95 300.954 199.123L301.497 199.251C302.056 199.379 302.223 199.567 302.033 199.879C301.812 200.243 301.212 200.507 300.611 200.507C299.968 200.507 299.671 200.26 299.844 199.871H299.103Z" fill="white"/>
</g>
<g filter="url(#filter7_dii_76_647)">
<rect width="142.759" height="142.759" rx="13" transform="matrix(1 0 -0.518922 0.854821 153.698 264.105)" fill="#151515" shape-rendering="crispEdges"/>
<path d="M155.296 314.975C155.296 314.975 154.087 313.784 157.37 312.195L165.276 308.067C165.276 308.067 167.665 306.677 168.564 307.888L198.822 340.143L189.433 355.61C189.433 355.61 187.934 358.039 184.451 357.77L155.296 314.975Z" fill="#2489CA"/>
<path d="M162.09 324.945L143.183 334.928C143.183 334.928 141.354 335.767 141.763 337.267L144.912 341.904C144.912 341.904 145.54 343.205 148.53 341.726L167.508 332.898L162.09 324.945Z" fill="#1070B3"/>
<path d="M184.592 325.027L217.486 309.65L226.672 294.265C226.672 294.265 227.705 290.908 223.287 292.655L177.131 317.046L184.592 325.027Z" fill="#0877B9"/>
<path d="M184.439 357.791C185.08 358.988 186.976 358.596 186.976 358.596L210.03 350.862C213.212 349.493 213.913 347.794 213.913 347.794L241.948 301.613C243.18 299.583 241.175 298.882 241.175 298.882L229.243 292.325C226.881 290.488 223.288 292.655 223.288 292.655C223.288 292.655 227.312 290.852 226.673 294.265L189.604 355.328C189.35 355.747 188.994 356.16 188.559 356.532C187.702 357.254 186.384 357.928 184.374 357.646L184.439 357.791Z" fill="#3C99D4"/>
</g>
<g filter="url(#filter8_dii_76_647)">
<rect width="142.759" height="142.759" rx="13" transform="matrix(1 0 -0.518922 0.854821 391.546 132.052)" fill="#151515" shape-rendering="crispEdges"/>
<path d="M442.777 159.894C445.327 158.932 447.891 158.928 449.27 159.894C456.256 164.669 463.25 169.436 470.233 174.213C471.549 175.109 471.719 176.877 470.588 178.708L453.15 207.434C452.006 209.341 449.541 211.152 447.049 212.026C434.314 216.775 421.58 221.529 408.847 226.277C406.244 227.258 403.677 227.183 402.377 226.121C400.312 224.657 398.237 223.201 396.171 221.739C395.754 221.431 395.222 221.186 395.1 220.686C395.74 220.252 396.447 220.198 397.109 220.008C398.545 219.673 400.004 219.135 401.454 218.613C401.842 218.445 402.153 218.51 402.336 218.659C404.111 219.897 405.841 221.171 407.631 222.398C408.01 222.664 408.772 222.31 409.368 222.09C421.872 217.419 434.377 212.765 446.88 208.093C447.327 207.946 447.723 207.621 447.897 207.285C453.657 197.809 459.405 188.331 465.159 178.855C465.431 178.475 465.386 178.125 465.078 177.969C458.129 173.243 451.189 168.509 444.243 163.781C444.133 163.681 443.964 163.627 443.758 163.627C443.552 163.627 443.318 163.68 443.087 163.78C430.4 168.509 417.712 173.247 405.026 177.973C404.53 178.129 404.052 178.473 403.868 178.855C398.117 188.331 392.362 197.809 386.609 207.287C386.492 207.45 386.435 207.615 386.444 207.757C386.452 207.9 386.527 208.014 386.658 208.084C388.507 209.354 390.365 210.615 392.218 211.88C393.282 212.56 394.85 212.964 396.793 212.443C398.496 212.003 400.263 210.75 401.027 209.447C406.759 200.027 412.459 190.604 418.194 181.185C418.412 180.767 419.085 180.421 419.537 180.461C420.8 180.453 422.065 180.446 423.313 180.463C423.845 180.453 423.933 180.904 423.612 181.325C417.852 190.805 412.115 200.286 406.338 209.767C404.808 212.293 401.924 215.042 398.44 216.279C394.166 217.77 390.195 217.454 387.736 216.024C385.602 214.795 383.733 213.344 381.703 212.028C380.265 211.158 380.009 209.34 381.179 207.434L398.618 178.708C399.732 176.839 402.118 175.039 404.57 174.156C417.305 169.404 430.042 164.649 442.777 159.894Z" fill="#8CC84B"/>
<path d="M439.291 179.793C443.731 179.556 448.272 179.653 451.039 181.462C453.191 182.849 453.084 185.758 451.411 188.601C451.095 188.985 450.498 189.196 450.085 189.17C448.84 189.168 447.583 189.184 446.35 189.162C445.811 189.18 445.756 188.763 445.932 188.363C446.4 187.003 446.35 185.656 445.251 185C443.549 184.016 440.853 184.066 438.334 184.086C436.453 184.169 434.403 184.305 432.294 185.225C430.681 185.922 429.465 187.328 429.202 188.461C429.109 189.275 430.048 189.537 430.8 189.779C435.275 190.937 440.832 190.822 444.986 192.345C446.711 192.966 448.036 194.173 447.613 196.055C447.023 198.577 444.78 201.592 441.452 203.617C438.738 205.284 435.708 206.19 432.936 206.683C429.265 207.31 425.841 207.326 422.669 207.048C419.713 206.741 416.872 206.036 415.558 204.206C414.419 202.667 414.862 200.268 416.367 197.954C416.629 197.563 417.25 197.29 417.668 197.322C418.929 197.313 420.186 197.311 421.433 197.324C421.953 197.293 422.1 197.663 421.88 198.067C421.325 199.363 421.069 200.723 421.925 201.492C423.622 202.899 426.882 202.802 429.779 202.842C432.255 202.75 434.989 202.722 437.794 201.355C439.309 200.575 440.41 199.27 440.81 198.147C441.08 197.2 440.189 196.758 439.368 196.469C435.096 195.087 429.243 195.589 425.13 194.026C423.452 193.405 422.177 192.231 422.483 190.427C422.932 187.872 425.355 184.713 428.862 182.757C432.305 180.81 436.024 180.061 439.291 179.793L439.291 179.793Z" fill="#8CC84B"/>
</g>
<g filter="url(#filter9_dii_76_647)">
<rect width="142.759" height="142.759" rx="13" transform="matrix(1 0 -0.518922 0.854821 312.314 264.105)" fill="#151515" shape-rendering="crispEdges"/>
<path d="M328.652 294.896H401.353L364.656 355.348H291.954L328.652 294.896Z" fill="url(#paint0_radial_76_647)"/>
<path d="M328.652 294.896H401.353L364.656 355.348H291.954L328.652 294.896ZM286.935 358.173H366.246L406.373 292.071H327.062L286.935 358.173ZM363.831 323.935C365.516 323.935 366.111 323.935 366.311 323.879C366.431 323.681 366.582 323.54 366.668 323.398C367.594 321.873 368.45 319.048 365.013 319.048C361.841 319.048 359.045 321.421 357.189 323.935H363.831V323.935ZM354.773 327.805C352.524 331.619 353.079 334.189 358.102 334.189C360.052 334.189 361.874 333.964 364.02 333.314C364.303 333.229 364.451 333.257 364.297 333.512L362.153 337.043C361.982 337.325 361.797 337.466 361.48 337.608C359.282 338.342 356.895 338.681 354.186 338.681C345.462 338.681 345.534 333.173 349.255 327.043C353.302 320.376 360.643 314.924 367.748 314.924C374.952 314.924 374.326 320.094 371.771 324.303C370.947 325.659 370.18 326.76 369.689 327.297C369.485 327.523 369.335 327.608 369.036 327.664C368.323 327.749 366.305 327.862 363.397 327.862H354.739L354.773 327.805ZM338.81 324.924C339.788 321.788 341.691 314.952 342.871 311.647H342.805C340.105 314.952 334.892 320.545 330.879 324.924H338.81V324.924ZM326.746 329.5L319.008 337.947C318.804 338.172 318.654 338.257 318.323 338.257H313.465C313.135 338.257 313.12 338.172 313.392 337.834L339.806 309.783C340.28 309.274 340.619 308.879 341.542 307.466C341.662 307.269 341.813 307.184 341.978 307.184H348.918C349.149 307.184 349.214 307.24 349.143 307.466L341.183 337.89C341.112 338.116 340.96 338.257 340.695 338.257H335.243C334.979 338.257 334.865 338.172 334.919 337.975L337.353 329.5H326.745L326.746 329.5Z" fill="#D8A1FF"/>
</g>
<g filter="url(#filter10_dii_76_647)">
<rect width="142.759" height="142.759" rx="13" transform="matrix(1 0 -0.518922 0.854821 550.163 132.052)" fill="#151515" shape-rendering="crispEdges"/>
<path d="M550.705 226.967C558.002 226.967 566.997 221.905 570.783 215.668L577.643 204.369H564.424C557.127 204.369 548.133 209.431 544.346 215.668C540.56 221.905 543.409 226.967 550.705 226.967Z" fill="#0ACF83"/>
<path d="M558.065 193.069C561.851 186.832 570.846 181.77 578.143 181.77H591.361L577.643 204.368H564.424C557.127 204.368 554.279 199.306 558.065 193.069Z" fill="#A259FF"/>
<path d="M571.784 170.47C575.57 164.233 584.565 159.171 591.862 159.171H605.08L591.361 181.77H578.143C570.846 181.77 567.997 176.708 571.784 170.47Z" fill="#F24E1E"/>
<path d="M605.08 159.171H618.299C625.595 159.171 628.444 164.233 624.658 170.47C620.871 176.708 611.876 181.77 604.58 181.77H591.361L605.08 159.171Z" fill="#FF7262"/>
<path d="M610.939 193.069C607.153 199.306 598.158 204.368 590.861 204.368C583.565 204.368 580.716 199.306 584.502 193.069C588.288 186.832 597.283 181.77 604.58 181.77C611.876 181.77 614.725 186.832 610.939 193.069Z" fill="#1ABCFE"/>
</g>
<g filter="url(#filter11_dii_76_647)">
<rect width="142.759" height="142.759" rx="13" transform="matrix(1 0 -0.518922 0.854821 470.932 264.105)" fill="#151515" shape-rendering="crispEdges"/>
<path d="M485.765 291.93H565.075L524.777 358.314H445.466L485.765 291.93Z" fill="url(#paint1_linear_76_647)"/>
<path d="M494.181 325.725H501.211L504.77 314.072L494.181 325.725ZM488.609 297.127L454.602 353.148H522.012L556.02 297.127H488.609ZM497.313 338.501L499.339 330.928H489.822L482.653 338.501H476.137L501.564 311.727L503.344 308.795H512.089L504.515 338.501H497.313V338.501ZM514.632 338.501H507.602L521.319 315.904H528.35L514.632 338.501ZM526.523 313.193C524.511 313.193 523.716 311.814 524.748 310.115C525.78 308.414 528.248 307.036 530.26 307.036C532.273 307.036 533.067 308.414 532.035 310.115C531.004 311.814 528.536 313.193 526.523 313.193Z" fill="url(#paint2_linear_76_647)"/>
</g>
<g filter="url(#filter12_dii_76_647)">
<rect width="142.759" height="142.759" rx="13" transform="matrix(1 0 -0.518922 0.854821 632.081 264)" fill="#151515" shape-rendering="crispEdges"/>
<path d="M662.792 330.994C666.654 330.994 671.409 328.318 673.413 325.017C675.417 321.716 673.911 319.04 670.049 319.04C666.187 319.04 661.432 321.716 659.428 325.017C657.424 328.318 658.93 330.994 662.792 330.994Z" fill="#61DAFB"/>
<path fill-rule="evenodd" clip-rule="evenodd" d="M635.469 321.868C633.144 323.09 631.972 324.157 631.45 325.017C630.929 325.876 630.804 326.944 631.646 328.166C632.488 329.387 634.193 330.588 636.779 331.64C641.936 333.739 650.178 335.083 660.309 335.083C670.441 335.083 680.314 333.739 688.02 331.64C691.884 330.588 695.046 329.387 697.371 328.166C699.696 326.944 700.869 325.876 701.39 325.017C701.912 324.157 702.036 323.09 701.194 321.868C700.353 320.646 698.647 319.446 696.062 318.394C690.904 316.294 682.663 314.95 672.531 314.95C662.4 314.95 652.526 316.294 644.82 318.394C640.957 319.446 637.794 320.646 635.469 321.868ZM645.473 314.322C654.037 311.989 664.587 310.592 675.177 310.592C685.767 310.592 694.621 311.989 700.352 314.322C703.211 315.485 705.398 316.924 706.575 318.633C707.752 320.341 708.02 322.495 706.489 325.017C704.958 327.539 702.074 329.693 698.824 331.401C695.573 333.109 691.639 334.548 687.367 335.712C678.804 338.044 668.253 339.442 657.663 339.442C647.074 339.442 638.22 338.044 632.488 335.712C629.63 334.548 627.443 333.109 626.266 331.401C625.089 329.693 624.821 327.539 626.352 325.017C627.883 322.495 630.766 320.341 634.017 318.633C637.268 316.924 641.202 315.485 645.473 314.322Z" fill="#61DAFB"/>
<path fill-rule="evenodd" clip-rule="evenodd" d="M668.904 299.114C667.215 298.553 665.782 298.699 664.651 299.129C663.519 299.558 662.14 300.48 660.611 302.263C659.083 304.046 657.626 306.448 656.404 309.361C653.965 315.172 652.654 322.55 653.166 330.05C653.679 337.55 655.907 343.583 658.996 347.295C660.545 349.156 662.248 350.358 663.937 350.919C665.626 351.481 667.058 351.335 668.19 350.905C669.321 350.475 670.701 349.553 672.229 347.77C673.758 345.987 675.215 343.585 676.437 340.672C678.876 334.861 680.187 327.484 679.674 319.983C679.162 312.483 676.934 306.45 673.844 302.738C672.295 300.877 670.592 299.675 668.904 299.114ZM679.113 299.356C682.546 303.481 684.877 309.965 685.413 317.804C685.949 325.644 684.6 333.525 681.89 339.983C680.538 343.204 678.799 346.189 676.662 348.682C674.525 351.175 671.769 353.418 668.448 354.679C665.127 355.94 662.212 355.851 659.85 355.066C657.489 354.281 655.44 352.735 653.728 350.677C650.294 346.553 647.964 340.069 647.428 332.229C646.892 324.389 648.241 316.509 650.951 310.051C652.302 306.83 654.042 303.845 656.179 301.352C658.316 298.859 661.072 296.615 664.393 295.354C667.714 294.093 670.629 294.183 672.99 294.967C675.352 295.752 677.401 297.299 679.113 299.356Z" fill="#61DAFB"/>
<path fill-rule="evenodd" clip-rule="evenodd" d="M699.854 302.263C700.491 300.48 700.23 299.558 699.621 299.129C699.011 298.699 697.756 298.553 695.385 299.114C693.015 299.675 689.853 300.877 686.045 302.738C678.449 306.45 668.896 312.483 659.277 319.983C649.658 327.484 642.013 334.861 637.396 340.672C635.081 343.586 633.622 345.988 632.986 347.77C632.35 349.553 632.61 350.475 633.22 350.905C633.829 351.335 635.084 351.481 637.455 350.919C639.825 350.358 642.987 349.156 646.795 347.295C654.391 343.584 663.944 337.55 673.563 330.05C683.182 322.55 690.827 315.172 695.444 309.361C697.759 306.448 699.218 304.046 699.854 302.263ZM700.06 310.051C694.929 316.509 686.71 324.39 676.656 332.229C666.602 340.069 656.399 346.553 647.958 350.678C643.748 352.735 639.821 354.281 636.507 355.066C633.193 355.851 630.169 355.941 628.379 354.679C626.589 353.418 626.557 351.175 627.447 348.682C628.336 346.189 630.221 343.204 632.78 339.983C637.911 333.525 646.13 325.644 656.184 317.804C666.238 309.965 676.441 303.481 684.882 299.356C689.092 297.299 693.019 295.752 696.333 294.967C699.647 294.183 702.671 294.093 704.461 295.354C706.251 296.615 706.283 298.859 705.393 301.352C704.504 303.845 702.619 306.83 700.06 310.051Z" fill="#61DAFB"/>
</g>
<g filter="url(#filter13_dii_76_647)">
<rect width="142.759" height="142.759" rx="13" transform="matrix(1 0 -0.518922 0.854821 713.081 132)" fill="#151515" shape-rendering="crispEdges"/>
<path d="M743.792 198.994C747.654 198.994 752.409 196.318 754.413 193.017C756.417 189.716 754.911 187.04 751.049 187.04C747.187 187.04 742.432 189.716 740.428 193.017C738.424 196.318 739.93 198.994 743.792 198.994Z" fill="#61DAFB"/>
<path fill-rule="evenodd" clip-rule="evenodd" d="M716.469 189.868C714.144 191.09 712.972 192.157 712.45 193.017C711.929 193.876 711.804 194.944 712.646 196.166C713.488 197.387 715.193 198.588 717.779 199.64C722.936 201.739 731.178 203.083 741.309 203.083C751.441 203.083 761.314 201.739 769.02 199.64C772.884 198.588 776.046 197.387 778.371 196.166C780.696 194.944 781.869 193.876 782.39 193.017C782.912 192.157 783.036 191.09 782.194 189.868C781.353 188.646 779.647 187.446 777.062 186.394C771.904 184.294 763.663 182.95 753.531 182.95C743.4 182.95 733.526 184.294 725.82 186.394C721.957 187.446 718.794 188.646 716.469 189.868ZM726.473 182.322C735.037 179.989 745.587 178.592 756.177 178.592C766.767 178.592 775.621 179.989 781.352 182.322C784.211 183.485 786.398 184.924 787.575 186.633C788.752 188.341 789.02 190.495 787.489 193.017C785.958 195.539 783.074 197.693 779.824 199.401C776.573 201.109 772.639 202.548 768.367 203.712C759.804 206.044 749.253 207.442 738.663 207.442C728.074 207.442 719.22 206.044 713.488 203.712C710.63 202.548 708.443 201.109 707.266 199.401C706.089 197.693 705.821 195.539 707.352 193.017C708.883 190.495 711.766 188.341 715.017 186.633C718.268 184.924 722.202 183.485 726.473 182.322Z" fill="#61DAFB"/>
<path fill-rule="evenodd" clip-rule="evenodd" d="M749.904 167.114C748.215 166.553 746.782 166.699 745.651 167.129C744.519 167.558 743.14 168.48 741.611 170.263C740.083 172.046 738.626 174.448 737.404 177.361C734.965 183.172 733.654 190.55 734.166 198.05C734.679 205.55 736.907 211.583 739.996 215.295C741.545 217.156 743.248 218.358 744.937 218.919C746.626 219.481 748.058 219.335 749.19 218.905C750.321 218.475 751.701 217.553 753.229 215.77C754.758 213.987 756.215 211.585 757.437 208.672C759.876 202.861 761.187 195.484 760.674 187.983C760.162 180.483 757.934 174.45 754.844 170.738C753.295 168.877 751.592 167.675 749.904 167.114ZM760.113 167.356C763.546 171.481 765.877 177.965 766.413 185.804C766.949 193.644 765.6 201.525 762.89 207.983C761.538 211.204 759.799 214.189 757.662 216.682C755.525 219.175 752.769 221.418 749.448 222.679C746.127 223.94 743.212 223.851 740.85 223.066C738.489 222.281 736.44 220.735 734.728 218.677C731.294 214.553 728.964 208.069 728.428 200.229C727.892 192.389 729.241 184.509 731.951 178.051C733.302 174.83 735.042 171.845 737.179 169.352C739.316 166.859 742.072 164.615 745.393 163.354C748.714 162.093 751.629 162.183 753.99 162.967C756.352 163.752 758.401 165.299 760.113 167.356Z" fill="#61DAFB"/>
<path fill-rule="evenodd" clip-rule="evenodd" d="M780.854 170.263C781.491 168.48 781.23 167.558 780.621 167.129C780.011 166.699 778.756 166.553 776.385 167.114C774.015 167.675 770.853 168.877 767.045 170.738C759.449 174.45 749.896 180.483 740.277 187.983C730.658 195.484 723.013 202.861 718.396 208.672C716.081 211.586 714.622 213.988 713.986 215.77C713.35 217.553 713.61 218.475 714.22 218.905C714.829 219.335 716.084 219.481 718.455 218.919C720.825 218.358 723.987 217.156 727.795 215.295C735.391 211.584 744.944 205.55 754.563 198.05C764.182 190.55 771.827 183.172 776.444 177.361C778.759 174.448 780.218 172.046 780.854 170.263ZM781.06 178.051C775.929 184.509 767.71 192.39 757.656 200.229C747.602 208.069 737.399 214.553 728.958 218.678C724.748 220.735 720.821 222.281 717.507 223.066C714.193 223.851 711.169 223.941 709.379 222.679C707.589 221.418 707.557 219.175 708.447 216.682C709.336 214.189 711.221 211.204 713.78 207.983C718.911 201.525 727.13 193.644 737.184 185.804C747.238 177.965 757.441 171.481 765.882 167.356C770.092 165.299 774.019 163.752 777.333 162.967C780.647 162.183 783.671 162.093 785.461 163.354C787.251 164.615 787.283 166.859 786.393 169.352C785.504 171.845 783.619 174.83 781.06 178.051Z" fill="#61DAFB"/>
</g>
<defs>
<filter id="filter0_dii_76_647" x="75.3091" y="0" width="224.84" height="130.034" filterUnits="userSpaceOnUse" color-interpolation-filters="sRGB">
<feFlood flood-opacity="0" result="BackgroundImageFix"/>
<feColorMatrix in="SourceAlpha" type="matrix" values="0 0 0 0 0 0 0 0 0 0 0 0 0 0 0 0 0 0 127 0" result="hardAlpha"/>
<feOffset dy="4"/>
<feGaussianBlur stdDeviation="2"/>
<feComposite in2="hardAlpha" operator="out"/>
<feColorMatrix type="matrix" values="0 0 0 0 0 0 0 0 0 0 0 0 0 0 0 0 0 0 0.25 0"/>
<feBlend mode="normal" in2="BackgroundImageFix" result="effect1_dropShadow_76_647"/>
<feBlend mode="normal" in="SourceGraphic" in2="effect1_dropShadow_76_647" result="shape"/>
<feColorMatrix in="SourceAlpha" type="matrix" values="0 0 0 0 0 0 0 0 0 0 0 0 0 0 0 0 0 0 127 0" result="hardAlpha"/>
<feOffset dy="1"/>
<feGaussianBlur stdDeviation="2"/>
<feComposite in2="hardAlpha" operator="arithmetic" k2="-1" k3="1"/>
<feColorMatrix type="matrix" values="0 0 0 0 1 0 0 0 0 1 0 0 0 0 1 0 0 0 0.08 0"/>
<feBlend mode="normal" in2="shape" result="effect2_innerShadow_76_647"/>
<feColorMatrix in="SourceAlpha" type="matrix" values="0 0 0 0 0 0 0 0 0 0 0 0 0 0 0 0 0 0 127 0" result="hardAlpha"/>
<feOffset dy="1"/>
<feGaussianBlur stdDeviation="1"/>
<feComposite in2="hardAlpha" operator="arithmetic" k2="-1" k3="1"/>
<feColorMatrix type="matrix" values="0 0 0 0 1 0 0 0 0 1 0 0 0 0 1 0 0 0 0.02 0"/>
<feBlend mode="normal" in2="effect2_innerShadow_76_647" result="effect3_innerShadow_76_647"/>
</filter>
<filter id="filter1_dii_76_647" x="233.926" y="0" width="224.84" height="130.034" filterUnits="userSpaceOnUse" color-interpolation-filters="sRGB">
<feFlood flood-opacity="0" result="BackgroundImageFix"/>
<feColorMatrix in="SourceAlpha" type="matrix" values="0 0 0 0 0 0 0 0 0 0 0 0 0 0 0 0 0 0 127 0" result="hardAlpha"/>
<feOffset dy="4"/>
<feGaussianBlur stdDeviation="2"/>
<feComposite in2="hardAlpha" operator="out"/>
<feColorMatrix type="matrix" values="0 0 0 0 0 0 0 0 0 0 0 0 0 0 0 0 0 0 0.25 0"/>
<feBlend mode="normal" in2="BackgroundImageFix" result="effect1_dropShadow_76_647"/>
<feBlend mode="normal" in="SourceGraphic" in2="effect1_dropShadow_76_647" result="shape"/>
<feColorMatrix in="SourceAlpha" type="matrix" values="0 0 0 0 0 0 0 0 0 0 0 0 0 0 0 0 0 0 127 0" result="hardAlpha"/>
<feOffset dy="1"/>
<feGaussianBlur stdDeviation="2"/>
<feComposite in2="hardAlpha" operator="arithmetic" k2="-1" k3="1"/>
<feColorMatrix type="matrix" values="0 0 0 0 1 0 0 0 0 1 0 0 0 0 1 0 0 0 0.08 0"/>
<feBlend mode="normal" in2="shape" result="effect2_innerShadow_76_647"/>
<feColorMatrix in="SourceAlpha" type="matrix" values="0 0 0 0 0 0 0 0 0 0 0 0 0 0 0 0 0 0 127 0" result="hardAlpha"/>
<feOffset dy="1"/>
<feGaussianBlur stdDeviation="1"/>
<feComposite in2="hardAlpha" operator="arithmetic" k2="-1" k3="1"/>
<feColorMatrix type="matrix" values="0 0 0 0 1 0 0 0 0 1 0 0 0 0 1 0 0 0 0.02 0"/>
<feBlend mode="normal" in2="effect2_innerShadow_76_647" result="effect3_innerShadow_76_647"/>
</filter>
<filter id="filter2_dii_76_647" x="392.542" y="0" width="224.84" height="130.034" filterUnits="userSpaceOnUse" color-interpolation-filters="sRGB">
<feFlood flood-opacity="0" result="BackgroundImageFix"/>
<feColorMatrix in="SourceAlpha" type="matrix" values="0 0 0 0 0 0 0 0 0 0 0 0 0 0 0 0 0 0 127 0" result="hardAlpha"/>
<feOffset dy="4"/>
<feGaussianBlur stdDeviation="2"/>
<feComposite in2="hardAlpha" operator="out"/>
<feColorMatrix type="matrix" values="0 0 0 0 0 0 0 0 0 0 0 0 0 0 0 0 0 0 0.25 0"/>
<feBlend mode="normal" in2="BackgroundImageFix" result="effect1_dropShadow_76_647"/>
<feBlend mode="normal" in="SourceGraphic" in2="effect1_dropShadow_76_647" result="shape"/>
<feColorMatrix in="SourceAlpha" type="matrix" values="0 0 0 0 0 0 0 0 0 0 0 0 0 0 0 0 0 0 127 0" result="hardAlpha"/>
<feOffset dy="1"/>
<feGaussianBlur stdDeviation="2"/>
<feComposite in2="hardAlpha" operator="arithmetic" k2="-1" k3="1"/>
<feColorMatrix type="matrix" values="0 0 0 0 1 0 0 0 0 1 0 0 0 0 1 0 0 0 0.08 0"/>
<feBlend mode="normal" in2="shape" result="effect2_innerShadow_76_647"/>
<feColorMatrix in="SourceAlpha" type="matrix" values="0 0 0 0 0 0 0 0 0 0 0 0 0 0 0 0 0 0 127 0" result="hardAlpha"/>
<feOffset dy="1"/>
<feGaussianBlur stdDeviation="1"/>
<feComposite in2="hardAlpha" operator="arithmetic" k2="-1" k3="1"/>
<feColorMatrix type="matrix" values="0 0 0 0 1 0 0 0 0 1 0 0 0 0 1 0 0 0 0.02 0"/>
<feBlend mode="normal" in2="effect2_innerShadow_76_647" result="effect3_innerShadow_76_647"/>
</filter>
<filter id="filter3_dii_76_647" x="551.159" y="0" width="224.84" height="130.034" filterUnits="userSpaceOnUse" color-interpolation-filters="sRGB">
<feFlood flood-opacity="0" result="BackgroundImageFix"/>
<feColorMatrix in="SourceAlpha" type="matrix" values="0 0 0 0 0 0 0 0 0 0 0 0 0 0 0 0 0 0 127 0" result="hardAlpha"/>
<feOffset dy="4"/>
<feGaussianBlur stdDeviation="2"/>
<feComposite in2="hardAlpha" operator="out"/>
<feColorMatrix type="matrix" values="0 0 0 0 0 0 0 0 0 0 0 0 0 0 0 0 0 0 0.25 0"/>
<feBlend mode="normal" in2="BackgroundImageFix" result="effect1_dropShadow_76_647"/>
<feBlend mode="normal" in="SourceGraphic" in2="effect1_dropShadow_76_647" result="shape"/>
<feColorMatrix in="SourceAlpha" type="matrix" values="0 0 0 0 0 0 0 0 0 0 0 0 0 0 0 0 0 0 127 0" result="hardAlpha"/>
<feOffset dy="1"/>
<feGaussianBlur stdDeviation="2"/>
<feComposite in2="hardAlpha" operator="arithmetic" k2="-1" k3="1"/>
<feColorMatrix type="matrix" values="0 0 0 0 1 0 0 0 0 1 0 0 0 0 1 0 0 0 0.08 0"/>
<feBlend mode="normal" in2="shape" result="effect2_innerShadow_76_647"/>
<feColorMatrix in="SourceAlpha" type="matrix" values="0 0 0 0 0 0 0 0 0 0 0 0 0 0 0 0 0 0 127 0" result="hardAlpha"/>
<feOffset dy="1"/>
<feGaussianBlur stdDeviation="1"/>
<feComposite in2="hardAlpha" operator="arithmetic" k2="-1" k3="1"/>
<feColorMatrix type="matrix" values="0 0 0 0 1 0 0 0 0 1 0 0 0 0 1 0 0 0 0.02 0"/>
<feBlend mode="normal" in2="effect2_innerShadow_76_647" result="effect3_innerShadow_76_647"/>
</filter>
<filter id="filter4_dii_76_647" x="14.7515" y="132.052" width="170.63" height="99.5254" filterUnits="userSpaceOnUse" color-interpolation-filters="sRGB">
<feFlood flood-opacity="0" result="BackgroundImageFix"/>
<feColorMatrix in="SourceAlpha" type="matrix" values="0 0 0 0 0 0 0 0 0 0 0 0 0 0 0 0 0 0 127 0" result="hardAlpha"/>
<feOffset dy="4"/>
<feGaussianBlur stdDeviation="2"/>
<feComposite in2="hardAlpha" operator="out"/>
<feColorMatrix type="matrix" values="0 0 0 0 0 0 0 0 0 0 0 0 0 0 0 0 0 0 0.25 0"/>
<feBlend mode="normal" in2="BackgroundImageFix" result="effect1_dropShadow_76_647"/>
<feBlend mode="normal" in="SourceGraphic" in2="effect1_dropShadow_76_647" result="shape"/>
<feColorMatrix in="SourceAlpha" type="matrix" values="0 0 0 0 0 0 0 0 0 0 0 0 0 0 0 0 0 0 127 0" result="hardAlpha"/>
<feOffset dy="1"/>
<feGaussianBlur stdDeviation="2"/>
<feComposite in2="hardAlpha" operator="arithmetic" k2="-1" k3="1"/>
<feColorMatrix type="matrix" values="0 0 0 0 1 0 0 0 0 1 0 0 0 0 1 0 0 0 0.08 0"/>
<feBlend mode="normal" in2="shape" result="effect2_innerShadow_76_647"/>
<feColorMatrix in="SourceAlpha" type="matrix" values="0 0 0 0 0 0 0 0 0 0 0 0 0 0 0 0 0 0 127 0" result="hardAlpha"/>
<feOffset dy="1"/>
<feGaussianBlur stdDeviation="1"/>
<feComposite in2="hardAlpha" operator="arithmetic" k2="-1" k3="1"/>
<feColorMatrix type="matrix" values="0 0 0 0 1 0 0 0 0 1 0 0 0 0 1 0 0 0 0.02 0"/>
<feBlend mode="normal" in2="effect2_innerShadow_76_647" result="effect3_innerShadow_76_647"/>
</filter>
<filter id="filter5_dii_76_647" x="-3.76855" y="132.052" width="224.84" height="130.034" filterUnits="userSpaceOnUse" color-interpolation-filters="sRGB">
<feFlood flood-opacity="0" result="BackgroundImageFix"/>
<feColorMatrix in="SourceAlpha" type="matrix" values="0 0 0 0 0 0 0 0 0 0 0 0 0 0 0 0 0 0 127 0" result="hardAlpha"/>
<feOffset dy="4"/>
<feGaussianBlur stdDeviation="2"/>
<feComposite in2="hardAlpha" operator="out"/>
<feColorMatrix type="matrix" values="0 0 0 0 0 0 0 0 0 0 0 0 0 0 0 0 0 0 0.25 0"/>
<feBlend mode="normal" in2="BackgroundImageFix" result="effect1_dropShadow_76_647"/>
<feBlend mode="normal" in="SourceGraphic" in2="effect1_dropShadow_76_647" result="shape"/>
<feColorMatrix in="SourceAlpha" type="matrix" values="0 0 0 0 0 0 0 0 0 0 0 0 0 0 0 0 0 0 127 0" result="hardAlpha"/>
<feOffset dy="1"/>
<feGaussianBlur stdDeviation="2"/>
<feComposite in2="hardAlpha" operator="arithmetic" k2="-1" k3="1"/>
<feColorMatrix type="matrix" values="0 0 0 0 1 0 0 0 0 1 0 0 0 0 1 0 0 0 0.08 0"/>
<feBlend mode="normal" in2="shape" result="effect2_innerShadow_76_647"/>
<feColorMatrix in="SourceAlpha" type="matrix" values="0 0 0 0 0 0 0 0 0 0 0 0 0 0 0 0 0 0 127 0" result="hardAlpha"/>
<feOffset dy="1"/>
<feGaussianBlur stdDeviation="1"/>
<feComposite in2="hardAlpha" operator="arithmetic" k2="-1" k3="1"/>
<feColorMatrix type="matrix" values="0 0 0 0 1 0 0 0 0 1 0 0 0 0 1 0 0 0 0.02 0"/>
<feBlend mode="normal" in2="effect2_innerShadow_76_647" result="effect3_innerShadow_76_647"/>
</filter>
<filter id="filter6_dii_76_647" x="154.848" y="132.052" width="224.84" height="130.034" filterUnits="userSpaceOnUse" color-interpolation-filters="sRGB">
<feFlood flood-opacity="0" result="BackgroundImageFix"/>
<feColorMatrix in="SourceAlpha" type="matrix" values="0 0 0 0 0 0 0 0 0 0 0 0 0 0 0 0 0 0 127 0" result="hardAlpha"/>
<feOffset dy="4"/>
<feGaussianBlur stdDeviation="2"/>
<feComposite in2="hardAlpha" operator="out"/>
<feColorMatrix type="matrix" values="0 0 0 0 0 0 0 0 0 0 0 0 0 0 0 0 0 0 0.25 0"/>
<feBlend mode="normal" in2="BackgroundImageFix" result="effect1_dropShadow_76_647"/>
<feBlend mode="normal" in="SourceGraphic" in2="effect1_dropShadow_76_647" result="shape"/>
<feColorMatrix in="SourceAlpha" type="matrix" values="0 0 0 0 0 0 0 0 0 0 0 0 0 0 0 0 0 0 127 0" result="hardAlpha"/>
<feOffset dy="1"/>
<feGaussianBlur stdDeviation="2"/>
<feComposite in2="hardAlpha" operator="arithmetic" k2="-1" k3="1"/>
<feColorMatrix type="matrix" values="0 0 0 0 1 0 0 0 0 1 0 0 0 0 1 0 0 0 0.08 0"/>
<feBlend mode="normal" in2="shape" result="effect2_innerShadow_76_647"/>
<feColorMatrix in="SourceAlpha" type="matrix" values="0 0 0 0 0 0 0 0 0 0 0 0 0 0 0 0 0 0 127 0" result="hardAlpha"/>
<feOffset dy="1"/>
<feGaussianBlur stdDeviation="1"/>
<feComposite in2="hardAlpha" operator="arithmetic" k2="-1" k3="1"/>
<feColorMatrix type="matrix" values="0 0 0 0 1 0 0 0 0 1 0 0 0 0 1 0 0 0 0.02 0"/>
<feBlend mode="normal" in2="effect2_innerShadow_76_647" result="effect3_innerShadow_76_647"/>
</filter>
<filter id="filter7_dii_76_647" x="75.6167" y="264.105" width="224.84" height="130.034" filterUnits="userSpaceOnUse" color-interpolation-filters="sRGB">
<feFlood flood-opacity="0" result="BackgroundImageFix"/>
<feColorMatrix in="SourceAlpha" type="matrix" values="0 0 0 0 0 0 0 0 0 0 0 0 0 0 0 0 0 0 127 0" result="hardAlpha"/>
<feOffset dy="4"/>
<feGaussianBlur stdDeviation="2"/>
<feComposite in2="hardAlpha" operator="out"/>
<feColorMatrix type="matrix" values="0 0 0 0 0 0 0 0 0 0 0 0 0 0 0 0 0 0 0.25 0"/>
<feBlend mode="normal" in2="BackgroundImageFix" result="effect1_dropShadow_76_647"/>
<feBlend mode="normal" in="SourceGraphic" in2="effect1_dropShadow_76_647" result="shape"/>
<feColorMatrix in="SourceAlpha" type="matrix" values="0 0 0 0 0 0 0 0 0 0 0 0 0 0 0 0 0 0 127 0" result="hardAlpha"/>
<feOffset dy="1"/>
<feGaussianBlur stdDeviation="2"/>
<feComposite in2="hardAlpha" operator="arithmetic" k2="-1" k3="1"/>
<feColorMatrix type="matrix" values="0 0 0 0 1 0 0 0 0 1 0 0 0 0 1 0 0 0 0.08 0"/>
<feBlend mode="normal" in2="shape" result="effect2_innerShadow_76_647"/>
<feColorMatrix in="SourceAlpha" type="matrix" values="0 0 0 0 0 0 0 0 0 0 0 0 0 0 0 0 0 0 127 0" result="hardAlpha"/>
<feOffset dy="1"/>
<feGaussianBlur stdDeviation="1"/>
<feComposite in2="hardAlpha" operator="arithmetic" k2="-1" k3="1"/>
<feColorMatrix type="matrix" values="0 0 0 0 1 0 0 0 0 1 0 0 0 0 1 0 0 0 0.02 0"/>
<feBlend mode="normal" in2="effect2_innerShadow_76_647" result="effect3_innerShadow_76_647"/>
</filter>
<filter id="filter8_dii_76_647" x="313.465" y="132.052" width="224.84" height="130.034" filterUnits="userSpaceOnUse" color-interpolation-filters="sRGB">
<feFlood flood-opacity="0" result="BackgroundImageFix"/>
<feColorMatrix in="SourceAlpha" type="matrix" values="0 0 0 0 0 0 0 0 0 0 0 0 0 0 0 0 0 0 127 0" result="hardAlpha"/>
<feOffset dy="4"/>
<feGaussianBlur stdDeviation="2"/>
<feComposite in2="hardAlpha" operator="out"/>
<feColorMatrix type="matrix" values="0 0 0 0 0 0 0 0 0 0 0 0 0 0 0 0 0 0 0.25 0"/>
<feBlend mode="normal" in2="BackgroundImageFix" result="effect1_dropShadow_76_647"/>
<feBlend mode="normal" in="SourceGraphic" in2="effect1_dropShadow_76_647" result="shape"/>
<feColorMatrix in="SourceAlpha" type="matrix" values="0 0 0 0 0 0 0 0 0 0 0 0 0 0 0 0 0 0 127 0" result="hardAlpha"/>
<feOffset dy="1"/>
<feGaussianBlur stdDeviation="2"/>
<feComposite in2="hardAlpha" operator="arithmetic" k2="-1" k3="1"/>
<feColorMatrix type="matrix" values="0 0 0 0 1 0 0 0 0 1 0 0 0 0 1 0 0 0 0.08 0"/>
<feBlend mode="normal" in2="shape" result="effect2_innerShadow_76_647"/>
<feColorMatrix in="SourceAlpha" type="matrix" values="0 0 0 0 0 0 0 0 0 0 0 0 0 0 0 0 0 0 127 0" result="hardAlpha"/>
<feOffset dy="1"/>
<feGaussianBlur stdDeviation="1"/>
<feComposite in2="hardAlpha" operator="arithmetic" k2="-1" k3="1"/>
<feColorMatrix type="matrix" values="0 0 0 0 1 0 0 0 0 1 0 0 0 0 1 0 0 0 0.02 0"/>
<feBlend mode="normal" in2="effect2_innerShadow_76_647" result="effect3_innerShadow_76_647"/>
</filter>
<filter id="filter9_dii_76_647" x="234.233" y="264.105" width="224.84" height="130.034" filterUnits="userSpaceOnUse" color-interpolation-filters="sRGB">
<feFlood flood-opacity="0" result="BackgroundImageFix"/>
<feColorMatrix in="SourceAlpha" type="matrix" values="0 0 0 0 0 0 0 0 0 0 0 0 0 0 0 0 0 0 127 0" result="hardAlpha"/>
<feOffset dy="4"/>
<feGaussianBlur stdDeviation="2"/>
<feComposite in2="hardAlpha" operator="out"/>
<feColorMatrix type="matrix" values="0 0 0 0 0 0 0 0 0 0 0 0 0 0 0 0 0 0 0.25 0"/>
<feBlend mode="normal" in2="BackgroundImageFix" result="effect1_dropShadow_76_647"/>
<feBlend mode="normal" in="SourceGraphic" in2="effect1_dropShadow_76_647" result="shape"/>
<feColorMatrix in="SourceAlpha" type="matrix" values="0 0 0 0 0 0 0 0 0 0 0 0 0 0 0 0 0 0 127 0" result="hardAlpha"/>
<feOffset dy="1"/>
<feGaussianBlur stdDeviation="2"/>
<feComposite in2="hardAlpha" operator="arithmetic" k2="-1" k3="1"/>
<feColorMatrix type="matrix" values="0 0 0 0 1 0 0 0 0 1 0 0 0 0 1 0 0 0 0.08 0"/>
<feBlend mode="normal" in2="shape" result="effect2_innerShadow_76_647"/>
<feColorMatrix in="SourceAlpha" type="matrix" values="0 0 0 0 0 0 0 0 0 0 0 0 0 0 0 0 0 0 127 0" result="hardAlpha"/>
<feOffset dy="1"/>
<feGaussianBlur stdDeviation="1"/>
<feComposite in2="hardAlpha" operator="arithmetic" k2="-1" k3="1"/>
<feColorMatrix type="matrix" values="0 0 0 0 1 0 0 0 0 1 0 0 0 0 1 0 0 0 0.02 0"/>
<feBlend mode="normal" in2="effect2_innerShadow_76_647" result="effect3_innerShadow_76_647"/>
</filter>
<filter id="filter10_dii_76_647" x="472.082" y="132.052" width="224.84" height="130.034" filterUnits="userSpaceOnUse" color-interpolation-filters="sRGB">
<feFlood flood-opacity="0" result="BackgroundImageFix"/>
<feColorMatrix in="SourceAlpha" type="matrix" values="0 0 0 0 0 0 0 0 0 0 0 0 0 0 0 0 0 0 127 0" result="hardAlpha"/>
<feOffset dy="4"/>
<feGaussianBlur stdDeviation="2"/>
<feComposite in2="hardAlpha" operator="out"/>
<feColorMatrix type="matrix" values="0 0 0 0 0 0 0 0 0 0 0 0 0 0 0 0 0 0 0.25 0"/>
<feBlend mode="normal" in2="BackgroundImageFix" result="effect1_dropShadow_76_647"/>
<feBlend mode="normal" in="SourceGraphic" in2="effect1_dropShadow_76_647" result="shape"/>
<feColorMatrix in="SourceAlpha" type="matrix" values="0 0 0 0 0 0 0 0 0 0 0 0 0 0 0 0 0 0 127 0" result="hardAlpha"/>
<feOffset dy="1"/>
<feGaussianBlur stdDeviation="2"/>
<feComposite in2="hardAlpha" operator="arithmetic" k2="-1" k3="1"/>
<feColorMatrix type="matrix" values="0 0 0 0 1 0 0 0 0 1 0 0 0 0 1 0 0 0 0.08 0"/>
<feBlend mode="normal" in2="shape" result="effect2_innerShadow_76_647"/>
<feColorMatrix in="SourceAlpha" type="matrix" values="0 0 0 0 0 0 0 0 0 0 0 0 0 0 0 0 0 0 127 0" result="hardAlpha"/>
<feOffset dy="1"/>
<feGaussianBlur stdDeviation="1"/>
<feComposite in2="hardAlpha" operator="arithmetic" k2="-1" k3="1"/>
<feColorMatrix type="matrix" values="0 0 0 0 1 0 0 0 0 1 0 0 0 0 1 0 0 0 0.02 0"/>
<feBlend mode="normal" in2="effect2_innerShadow_76_647" result="effect3_innerShadow_76_647"/>
</filter>
<filter id="filter11_dii_76_647" x="392.851" y="264.105" width="224.84" height="130.034" filterUnits="userSpaceOnUse" color-interpolation-filters="sRGB">
<feFlood flood-opacity="0" result="BackgroundImageFix"/>
<feColorMatrix in="SourceAlpha" type="matrix" values="0 0 0 0 0 0 0 0 0 0 0 0 0 0 0 0 0 0 127 0" result="hardAlpha"/>
<feOffset dy="4"/>
<feGaussianBlur stdDeviation="2"/>
<feComposite in2="hardAlpha" operator="out"/>
<feColorMatrix type="matrix" values="0 0 0 0 0 0 0 0 0 0 0 0 0 0 0 0 0 0 0.25 0"/>
<feBlend mode="normal" in2="BackgroundImageFix" result="effect1_dropShadow_76_647"/>
<feBlend mode="normal" in="SourceGraphic" in2="effect1_dropShadow_76_647" result="shape"/>
<feColorMatrix in="SourceAlpha" type="matrix" values="0 0 0 0 0 0 0 0 0 0 0 0 0 0 0 0 0 0 127 0" result="hardAlpha"/>
<feOffset dy="1"/>
<feGaussianBlur stdDeviation="2"/>
<feComposite in2="hardAlpha" operator="arithmetic" k2="-1" k3="1"/>
<feColorMatrix type="matrix" values="0 0 0 0 1 0 0 0 0 1 0 0 0 0 1 0 0 0 0.08 0"/>
<feBlend mode="normal" in2="shape" result="effect2_innerShadow_76_647"/>
<feColorMatrix in="SourceAlpha" type="matrix" values="0 0 0 0 0 0 0 0 0 0 0 0 0 0 0 0 0 0 127 0" result="hardAlpha"/>
<feOffset dy="1"/>
<feGaussianBlur stdDeviation="1"/>
<feComposite in2="hardAlpha" operator="arithmetic" k2="-1" k3="1"/>
<feColorMatrix type="matrix" values="0 0 0 0 1 0 0 0 0 1 0 0 0 0 1 0 0 0 0.02 0"/>
<feBlend mode="normal" in2="effect2_innerShadow_76_647" result="effect3_innerShadow_76_647"/>
</filter>
<filter id="filter12_dii_76_647" x="554" y="264" width="224.84" height="130.034" filterUnits="userSpaceOnUse" color-interpolation-filters="sRGB">
<feFlood flood-opacity="0" result="BackgroundImageFix"/>
<feColorMatrix in="SourceAlpha" type="matrix" values="0 0 0 0 0 0 0 0 0 0 0 0 0 0 0 0 0 0 127 0" result="hardAlpha"/>
<feOffset dy="4"/>
<feGaussianBlur stdDeviation="2"/>
<feComposite in2="hardAlpha" operator="out"/>
<feColorMatrix type="matrix" values="0 0 0 0 0 0 0 0 0 0 0 0 0 0 0 0 0 0 0.25 0"/>
<feBlend mode="normal" in2="BackgroundImageFix" result="effect1_dropShadow_76_647"/>
<feBlend mode="normal" in="SourceGraphic" in2="effect1_dropShadow_76_647" result="shape"/>
<feColorMatrix in="SourceAlpha" type="matrix" values="0 0 0 0 0 0 0 0 0 0 0 0 0 0 0 0 0 0 127 0" result="hardAlpha"/>
<feOffset dy="1"/>
<feGaussianBlur stdDeviation="2"/>
<feComposite in2="hardAlpha" operator="arithmetic" k2="-1" k3="1"/>
<feColorMatrix type="matrix" values="0 0 0 0 1 0 0 0 0 1 0 0 0 0 1 0 0 0 0.08 0"/>
<feBlend mode="normal" in2="shape" result="effect2_innerShadow_76_647"/>
<feColorMatrix in="SourceAlpha" type="matrix" values="0 0 0 0 0 0 0 0 0 0 0 0 0 0 0 0 0 0 127 0" result="hardAlpha"/>
<feOffset dy="1"/>
<feGaussianBlur stdDeviation="1"/>
<feComposite in2="hardAlpha" operator="arithmetic" k2="-1" k3="1"/>
<feColorMatrix type="matrix" values="0 0 0 0 1 0 0 0 0 1 0 0 0 0 1 0 0 0 0.02 0"/>
<feBlend mode="normal" in2="effect2_innerShadow_76_647" result="effect3_innerShadow_76_647"/>
</filter>
<filter id="filter13_dii_76_647" x="635" y="132" width="224.84" height="130.034" filterUnits="userSpaceOnUse" color-interpolation-filters="sRGB">
<feFlood flood-opacity="0" result="BackgroundImageFix"/>
<feColorMatrix in="SourceAlpha" type="matrix" values="0 0 0 0 0 0 0 0 0 0 0 0 0 0 0 0 0 0 127 0" result="hardAlpha"/>
<feOffset dy="4"/>
<feGaussianBlur stdDeviation="2"/>
<feComposite in2="hardAlpha" operator="out"/>
<feColorMatrix type="matrix" values="0 0 0 0 0 0 0 0 0 0 0 0 0 0 0 0 0 0 0.25 0"/>
<feBlend mode="normal" in2="BackgroundImageFix" result="effect1_dropShadow_76_647"/>
<feBlend mode="normal" in="SourceGraphic" in2="effect1_dropShadow_76_647" result="shape"/>
<feColorMatrix in="SourceAlpha" type="matrix" values="0 0 0 0 0 0 0 0 0 0 0 0 0 0 0 0 0 0 127 0" result="hardAlpha"/>
<feOffset dy="1"/>
<feGaussianBlur stdDeviation="2"/>
<feComposite in2="hardAlpha" operator="arithmetic" k2="-1" k3="1"/>
<feColorMatrix type="matrix" values="0 0 0 0 1 0 0 0 0 1 0 0 0 0 1 0 0 0 0.08 0"/>
<feBlend mode="normal" in2="shape" result="effect2_innerShadow_76_647"/>
<feColorMatrix in="SourceAlpha" type="matrix" values="0 0 0 0 0 0 0 0 0 0 0 0 0 0 0 0 0 0 127 0" result="hardAlpha"/>
<feOffset dy="1"/>
<feGaussianBlur stdDeviation="1"/>
<feComposite in2="hardAlpha" operator="arithmetic" k2="-1" k3="1"/>
<feColorMatrix type="matrix" values="0 0 0 0 1 0 0 0 0 1 0 0 0 0 1 0 0 0 0.02 0"/>
<feBlend mode="normal" in2="effect2_innerShadow_76_647" result="effect3_innerShadow_76_647"/>
</filter>
<radialGradient id="paint0_radial_76_647" cx="0" cy="0" r="1" gradientUnits="userSpaceOnUse" gradientTransform="translate(344.372 308.443) scale(55.2532 45.7288)">
<stop stop-color="#442F55" stop-opacity="0.98"/>
<stop offset="1" stop-color="#12002C"/>
</radialGradient>
<linearGradient id="paint1_linear_76_647" x1="564.877" y1="291.576" x2="446.815" y2="358.019" gradientUnits="userSpaceOnUse">
<stop stop-color="#FFAA2A"/>
<stop offset="1" stop-color="#FFC06C"/>
</linearGradient>
<linearGradient id="paint2_linear_76_647" x1="522.372" y1="297.033" x2="522.372" y2="352.865" gradientUnits="userSpaceOnUse">
<stop stop-color="#251200"/>
<stop offset="1"/>
</linearGradient>
</defs>
</svg>
