<svg width="50" height="56" viewBox="0 0 50 56" fill="none" xmlns="http://www.w3.org/2000/svg">
<path d="M49.493 0.22229L45.0303 50.2165L24.97 55.7778L4.96499 50.2243L0.506958 0.22229H49.493Z" fill="#264DE4"/>
<path d="M41.2097 47.033L45.0234 4.31067H25V51.5269L41.2097 47.033Z" fill="#2965F1"/>
<path d="M10.7269 22.8557L11.2766 28.9882H25V22.8557H10.7269Z" fill="#EBEBEB"/>
<path d="M25.0001 10.4432H24.9789H9.62256L10.18 16.5758H25.0001V10.4432Z" fill="#EBEBEB"/>
<path d="M25 45.1628V38.7824L24.9731 38.7895L18.1433 36.9453L17.7066 32.0543H14.3879H11.5505L12.4097 41.6833L24.9718 45.1706L25 45.1628Z" fill="#EBEBEB"/>
<path d="M32.5304 28.9881L31.8186 36.9416L24.9789 38.7877V45.1678L37.5509 41.6835L37.6432 40.6474L39.0842 24.5024L39.2339 22.8557L40.341 10.4432H24.9789V16.5758H33.6203L33.0622 22.8557H24.9789V28.9881H32.5304Z" fill="#1E2235"/>
</svg>
