<svg width="56" height="56" viewBox="0 0 56 56" fill="none" xmlns="http://www.w3.org/2000/svg">
<path d="M54.73 25.5248L30.4739 1.26998C29.0779 -0.12694 26.8122 -0.12694 25.4144 1.26998L20.3776 6.30687L26.7671 12.6964C28.2519 12.1947 29.9546 12.5313 31.1382 13.7149C32.3274 14.906 32.6616 16.6233 32.1477 18.1129L38.3055 24.2708C39.7953 23.7576 41.5143 24.0896 42.7042 25.2815C44.3671 26.9438 44.3671 29.638 42.7042 31.3014C41.0407 32.9651 38.3465 32.9651 36.6822 31.3014C35.4314 30.0493 35.1223 28.2123 35.7556 26.6712L30.013 20.9286L30.0123 36.0408C30.4286 36.2466 30.8088 36.5185 31.1382 36.8459C32.8012 38.5083 32.8012 41.2027 31.1382 42.8674C29.4748 44.5302 26.7792 44.5302 25.1182 42.8674C23.4552 41.2027 23.4552 38.5085 25.1182 36.8462C25.5167 36.4474 25.9904 36.1317 26.5117 35.9171V20.6641C25.9896 20.451 25.5157 20.135 25.1182 19.735C23.8582 18.4768 23.5553 16.6281 24.2009 15.081L17.9023 8.7817L1.27035 25.4126C-0.127224 26.8108 -0.127224 29.0766 1.27035 30.4738L25.5269 54.729C26.9233 56.1261 29.1885 56.1261 30.5868 54.729L54.7298 30.5864C56.1269 29.1888 56.1269 26.9217 54.7298 25.5248" fill="#EF4444"/>
</svg>
