<svg width="56" height="56" viewBox="0 0 56 56" fill="none" xmlns="http://www.w3.org/2000/svg">
<path d="M55.7778 0.22229H0.22229V55.7778H55.7778V0.22229Z" fill="#F7DF1E"/>
<path d="M37.5415 43.6252C38.6605 45.4524 40.1164 46.7954 42.6914 46.7954C44.8545 46.7954 46.2363 45.7143 46.2363 44.2205C46.2363 42.4303 44.8166 41.7963 42.4356 40.7549L41.1305 40.1949C37.3633 38.59 34.8607 36.5794 34.8607 32.3289C34.8607 28.4136 37.8439 25.433 42.5062 25.433C45.8254 25.433 48.2116 26.5882 49.9312 29.6129L45.866 32.2231C44.9709 30.6182 44.0053 29.9859 42.5062 29.9859C40.9771 29.9859 40.0079 30.9559 40.0079 32.2231C40.0079 33.7892 40.978 34.4233 43.2178 35.3933L44.5229 35.9524C48.9586 37.8545 51.463 39.7937 51.463 44.1534C51.463 48.8536 47.7707 51.4286 42.8122 51.4286C37.9639 51.4286 34.8316 49.1182 33.2989 46.09L37.5415 43.6252ZM19.0997 44.0776C19.9198 45.5326 20.6658 46.7628 22.4594 46.7628C24.1746 46.7628 25.2566 46.0917 25.2566 43.4824V25.731H30.4771V43.5529C30.4771 48.9586 27.3078 51.4189 22.6817 51.4189C18.5018 51.4189 16.0811 49.2557 14.8501 46.6504L19.0997 44.0776Z" fill="black"/>
</svg>
