<svg width="91" height="76" viewBox="0 0 91 76" fill="none" xmlns="http://www.w3.org/2000/svg">
<g clip-path="url(#clip0_29_427)">
<path d="M5.54615 17.802C5.54742 35.0227 5.54856 52.1908 5.55019 69.3588C5.55026 70.1051 5.55239 70.106 6.32353 70.1062C7.0401 70.1063 7.7568 70.1119 8.47318 70.0999C8.81715 70.0941 9.00293 70.1833 8.99888 70.5715C8.98329 72.062 8.98587 73.5527 8.99593 75.0432C8.99827 75.3888 8.84993 75.5008 8.51311 75.5C5.89762 75.4937 3.2821 75.5017 0.666614 75.4947C0.0486475 75.4931 0.000164046 75.4194 0.00015093 74.7057C-6.22593e-05 63.1843 0.000418323 51.6629 0.000418323 40.1416C0.000419935 27.1822 6.39761e-05 14.2229 8.65749e-09 1.26353C-3.3241e-06 0.493961 0.00054632 0.499154 0.774736 0.500082C3.28275 0.50309 5.79076 0.500854 8.29877 0.503112C8.96758 0.503714 8.98917 0.525777 8.99015 1.18781C8.99212 2.52057 8.97101 3.85372 8.99944 5.18589C9.00995 5.67832 8.87627 5.87955 8.34111 5.84902C7.60907 5.80727 6.87151 5.86264 6.13868 5.82824C5.65312 5.80545 5.53434 5.98953 5.53618 6.43862C5.55168 10.2088 5.54566 13.9791 5.54615 17.802Z" fill="white"/>
<path d="M56.4893 66.8849C53.9671 67.8873 51.3814 68.5008 48.7448 68.843C46.6951 69.1089 44.626 68.9992 42.567 68.7936C39.27 68.4644 36.1144 67.6097 33.1015 66.2284C27.4123 63.6203 22.9491 59.6014 19.6354 54.2837C17.5982 51.0145 16.2067 47.4752 15.5203 43.6782C14.9963 40.7795 14.8675 37.8552 15.1367 34.9097C15.4996 30.9385 16.5207 27.1587 18.3628 23.6324C21.7783 17.0941 26.7789 12.233 33.5601 9.29287C36.2777 8.11457 39.1089 7.34034 42.0505 7.1128C47.2249 6.71256 52.2556 7.35763 57.0977 9.36513C62.969 11.7994 67.6352 15.6865 71.2151 20.9337C72.0682 22.1841 72.8122 23.4993 73.457 24.8706C73.522 25.0088 73.6354 25.1405 73.5507 25.3184C73.4097 25.4588 73.226 25.4152 73.0579 25.4153C69.0502 25.4181 65.0425 25.4182 61.0347 25.417C60.6183 25.4168 60.0287 24.9416 59.9245 24.5366C59.8614 24.2914 60.0454 24.1823 60.19 24.0683C60.8649 23.5365 61.5495 23.017 62.2258 22.4869C62.3883 22.3596 62.5934 22.2758 62.6933 22.0621C62.63 21.7911 62.4129 21.6262 62.235 21.4412C58.5311 17.5911 54.0563 15.1657 48.778 14.4846C40.6235 13.4325 33.759 16.0823 28.2606 22.2271C25.4503 25.3678 23.6317 29.0368 22.8401 33.2017C22.4104 35.4629 22.3904 37.7395 22.5564 40.0312C22.8051 43.465 23.7987 46.6713 25.5327 49.6125C29.2293 55.8826 34.6484 59.8194 41.7923 61.0771C47.9355 62.1586 53.6306 60.825 58.7404 57.1479C62.4196 54.5002 65.1379 51.076 66.9128 46.897C67.5374 45.4265 68.022 43.9067 68.2265 42.2904C67.886 42.1363 67.5555 42.1441 67.2266 42.1441C60.0336 42.1442 52.8407 42.1447 45.6478 42.1449C44.9 42.1449 44.8967 42.1444 44.894 41.3794C44.8859 39.0716 44.8851 36.7638 44.8719 34.4561C44.867 33.6143 44.8547 33.6146 45.7045 33.6146C55.4526 33.6146 65.2007 33.6145 74.9487 33.6147C75.7004 33.6147 75.7151 33.6144 75.7945 34.3408C76.0472 36.6543 76.072 38.9618 75.8403 41.2878C75.1029 48.693 71.9635 54.9275 66.7979 60.1527C63.8649 63.1197 60.4082 65.3396 56.4893 66.8849Z" fill="white"/>
<path d="M90.9961 57.8484C90.9958 63.6723 90.9961 69.4429 90.9947 75.2136C90.9945 75.9195 90.9439 75.9857 90.2348 75.9884C87.6639 75.998 85.093 75.9896 82.5221 76C82.1567 76.0015 82.003 75.888 82.0066 75.5113C82.0207 74.0022 82.0195 72.4929 82.0075 70.9837C82.0047 70.6342 82.1461 70.5105 82.4896 70.5175C83.2317 70.5328 83.976 70.4972 84.7158 70.5412C85.277 70.5746 85.4221 70.3661 85.4205 69.8382C85.4036 64.0321 85.4071 58.226 85.4078 52.4198C85.4095 37.0078 85.4125 21.5958 85.4151 6.18376C85.4153 5.47112 85.4059 5.45922 84.7015 5.45689C84.0136 5.45461 83.3235 5.42458 82.6383 5.46718C82.1139 5.49978 81.9954 5.29132 82.0035 4.8223C82.0273 3.43774 82.0336 2.05203 82.0006 0.667834C81.9879 0.14014 82.1908 -0.007563 82.6935 0.000294119C84.754 0.0324855 86.8149 0.0404189 88.8756 0.0551661C89.3996 0.0589166 89.9242 0.0685605 90.4476 0.0502092C90.887 0.0347988 91.0237 0.249247 90.9967 0.639076C90.9845 0.815794 90.9957 0.99405 90.9957 1.17161C90.9958 20.0461 90.996 38.9206 90.9961 57.8484Z" fill="white"/>
</g>
<defs>
<clipPath id="clip0_29_427">
<rect width="91" height="76" fill="white"/>
</clipPath>
</defs>
</svg>
