<svg width="39" height="26" viewBox="0 0 39 26" fill="none" xmlns="http://www.w3.org/2000/svg">
<g opacity="0.5" clip-path="url(#clip0_36_1059)">
<path d="M1.86013 5.98076C1.86056 11.9216 1.86094 17.8442 1.86149 23.7669C1.86151 24.0243 1.86223 24.0246 2.12086 24.0247C2.36119 24.0247 2.60157 24.0267 2.84184 24.0225C2.9572 24.0205 3.01951 24.0513 3.01815 24.1852C3.01292 24.6994 3.01379 25.2137 3.01716 25.7279C3.01795 25.8471 2.96819 25.8857 2.85523 25.8854C1.97802 25.8833 1.10079 25.886 0.223577 25.8836C0.016316 25.8831 5.50197e-05 25.8576 5.06207e-05 25.6114C-2.08813e-05 21.6368 0.000140302 17.6621 0.000140302 13.6875C0.000140843 9.21675 2.14571e-05 4.74603 2.90365e-09 0.275303C-1.11488e-06 0.0098184 0.000183231 0.01161 0.25984 0.0119301C1.10101 0.0129678 1.94218 0.0121966 2.78334 0.0129755C3.00766 0.0131832 3.0149 0.0207943 3.01522 0.249184C3.01588 0.708959 3.0088 1.16887 3.01834 1.62844C3.02186 1.79832 2.97703 1.86774 2.79754 1.85721C2.55202 1.84281 2.30465 1.86191 2.05886 1.85004C1.89601 1.84218 1.85617 1.90568 1.85679 2.06061C1.86199 3.36126 1.85997 4.66193 1.86013 5.98076Z" fill="white"/>
<path d="M23.265 22.8695C22.3989 23.2139 21.511 23.4246 20.6057 23.5421C19.9018 23.6334 19.1914 23.5957 18.4844 23.5251C17.3523 23.4121 16.2687 23.1185 15.2341 22.6441C13.2806 21.7483 11.7481 20.368 10.6102 18.5415C9.91071 17.4187 9.43291 16.203 9.19721 14.8989C9.01727 13.9033 8.97305 12.8989 9.06548 11.8873C9.19009 10.5233 9.54072 9.2251 10.1732 8.01395C11.346 5.76828 13.0631 4.09869 15.3916 3.08886C16.3248 2.68416 17.297 2.41824 18.307 2.34009C20.0838 2.20262 21.8112 2.42418 23.4739 3.11368C25.4899 3.94974 27.0922 5.28484 28.3214 7.08704C28.6144 7.5165 28.8698 7.96822 29.0912 8.43921C29.1136 8.48669 29.1525 8.53192 29.1234 8.59303C29.075 8.64124 29.0119 8.62628 28.9542 8.62632C27.578 8.62728 26.2019 8.62729 24.8257 8.62688C24.6827 8.62684 24.4803 8.46362 24.4445 8.3245C24.4229 8.2403 24.486 8.20282 24.5357 8.16367C24.7674 7.981 25.0025 7.80258 25.2347 7.62053C25.2905 7.57678 25.3609 7.54802 25.3952 7.47462C25.3735 7.38152 25.299 7.32489 25.2379 7.26137C23.966 5.93898 22.4295 5.10594 20.6171 4.87204C17.817 4.51068 15.4599 5.42076 13.5719 7.53129C12.6069 8.60999 11.9825 9.87017 11.7107 11.3006C11.5631 12.0773 11.5562 12.8592 11.6132 13.6463C11.6986 14.8257 12.0398 15.9269 12.6352 16.9371C13.9046 19.0907 15.7653 20.4428 18.2184 20.8748C20.3278 21.2462 22.2834 20.7882 24.0379 19.5253C25.3013 18.6159 26.2347 17.4398 26.8441 16.0045C27.0586 15.4994 27.225 14.9774 27.2952 14.4223C27.1783 14.3693 27.0648 14.372 26.9519 14.372C24.482 14.3721 22.0121 14.3722 19.5422 14.3723C19.2855 14.3723 19.2843 14.3721 19.2834 14.1094C19.2806 13.3167 19.2804 12.5241 19.2758 11.7315C19.2742 11.4424 19.2699 11.4425 19.5617 11.4425C22.909 11.4425 26.2562 11.4424 29.6035 11.4425C29.8616 11.4425 29.8666 11.4424 29.8939 11.6919C29.9806 12.4865 29.9892 13.279 29.9096 14.0779C29.6564 16.6213 28.5784 18.7626 26.8047 20.5573C25.7975 21.5763 24.6106 22.3388 23.265 22.8695Z" fill="white"/>
<path d="M38.9502 19.7121C38.9501 21.6966 38.9502 23.663 38.9497 25.6294C38.9497 25.8699 38.9328 25.8925 38.6975 25.8934C37.8442 25.8967 36.9909 25.8938 36.1376 25.8973C36.0164 25.8978 35.9654 25.8592 35.9665 25.7308C35.9712 25.2166 35.9708 24.7023 35.9668 24.188C35.9659 24.0689 36.0128 24.0268 36.1269 24.0292C36.3732 24.0344 36.6202 24.0223 36.8657 24.0372C37.052 24.0486 37.1001 23.9776 37.0996 23.7977C37.094 21.8192 37.0952 19.8408 37.0954 17.8623C37.096 12.6106 37.097 7.35886 37.0978 2.10714C37.0979 1.86431 37.0948 1.86026 36.861 1.85946C36.6327 1.85868 36.4036 1.84845 36.1762 1.86297C36.0022 1.87407 35.9628 1.80304 35.9655 1.64322C35.9734 1.17143 35.9755 0.69924 35.9645 0.227567C35.9604 0.0477534 36.0277 -0.00257713 36.1945 0.000100222C36.8784 0.0110696 37.5624 0.0137729 38.2464 0.0187981C38.4203 0.0200761 38.5944 0.0233623 38.7681 0.017109C38.914 0.0118579 38.9593 0.084932 38.9504 0.217768C38.9463 0.277986 38.95 0.338727 38.95 0.39923C38.9501 6.8308 38.9501 13.2624 38.9502 19.7121Z" fill="white"/>
</g>
<defs>
<clipPath id="clip0_36_1059">
<rect width="38.9515" height="25.8973" fill="white"/>
</clipPath>
</defs>
</svg>
