<svg width="39" height="26" viewBox="0 0 39 26" fill="none" xmlns="http://www.w3.org/2000/svg">
<g clip-path="url(#clip0_29_453)">
<path d="M1.86013 6.07294C1.86056 12.0137 1.86094 17.9364 1.86149 23.859C1.86151 24.1165 1.86223 24.1168 2.12086 24.1169C2.36119 24.1169 2.60157 24.1188 2.84184 24.1147C2.9572 24.1127 3.01951 24.1435 3.01815 24.2774C3.01292 24.7916 3.01379 25.3058 3.01716 25.82C3.01795 25.9393 2.96819 25.9779 2.85523 25.9776C1.97802 25.9755 1.10079 25.9782 0.223577 25.9758C0.016316 25.9752 5.50197e-05 25.9498 5.06207e-05 25.7036C-2.08813e-05 21.729 0.000140302 17.7543 0.000140302 13.7797C0.000140843 9.30893 2.14571e-05 4.83821 2.90365e-09 0.367482C-1.11488e-06 0.101997 0.000183231 0.103788 0.25984 0.104108C1.10101 0.105146 1.94218 0.104375 2.78334 0.105154C3.00766 0.105362 3.0149 0.112973 3.01522 0.341362C3.01588 0.801137 3.0088 1.26105 3.01834 1.72062C3.02186 1.8905 2.97703 1.95992 2.79754 1.94939C2.55202 1.93498 2.30465 1.95409 2.05886 1.94222C1.89601 1.93436 1.85617 1.99786 1.85679 2.15279C1.86199 3.45344 1.85997 4.75411 1.86013 6.07294Z" fill="#181818"/>
<path d="M23.265 22.9617C22.3989 23.306 21.511 23.5167 20.6057 23.6342C19.9018 23.7256 19.1914 23.6879 18.4844 23.6173C17.3523 23.5042 16.2687 23.2107 15.2341 22.7362C13.2806 21.8404 11.7481 20.4601 10.6102 18.6337C9.91071 17.5108 9.43291 16.2952 9.19721 14.9911C9.01727 13.9955 8.97305 12.9911 9.06548 11.9795C9.19009 10.6155 9.54072 9.31728 10.1732 8.10613C11.346 5.86046 13.0631 4.19087 15.3916 3.18104C16.3248 2.77634 17.297 2.51042 18.307 2.43227C20.0838 2.2948 21.8112 2.51636 23.4739 3.20586C25.4899 4.04192 27.0922 5.37702 28.3214 7.17922C28.6144 7.60868 28.8698 8.0604 29.0912 8.53139C29.1136 8.57886 29.1525 8.6241 29.1234 8.68521C29.075 8.73342 29.0119 8.71845 28.9542 8.71849C27.578 8.71946 26.2019 8.71947 24.8257 8.71906C24.6827 8.71902 24.4803 8.5558 24.4445 8.41667C24.4229 8.33248 24.486 8.295 24.5357 8.25585C24.7674 8.07318 25.0025 7.89476 25.2347 7.7127C25.2905 7.66896 25.3609 7.6402 25.3952 7.56679C25.3735 7.4737 25.299 7.41707 25.2379 7.35355C23.966 6.03116 22.4295 5.19812 20.6171 4.96422C17.817 4.60285 15.4599 5.51294 13.5719 7.62347C12.6069 8.70217 11.9825 9.96235 11.7107 11.3928C11.5631 12.1694 11.5562 12.9514 11.6132 13.7385C11.6986 14.9179 12.0398 16.0191 12.6352 17.0293C13.9046 19.1829 15.7653 20.535 18.2184 20.967C20.3278 21.3384 22.2834 20.8804 24.0379 19.6174C25.3013 18.708 26.2347 17.532 26.8441 16.0966C27.0586 15.5916 27.225 15.0696 27.2952 14.5144C27.1783 14.4615 27.0648 14.4642 26.9519 14.4642C24.482 14.4642 22.0121 14.4644 19.5422 14.4645C19.2855 14.4645 19.2843 14.4643 19.2834 14.2016C19.2806 13.4089 19.2804 12.6163 19.2758 11.8236C19.2742 11.5345 19.2699 11.5346 19.5617 11.5346C22.909 11.5346 26.2562 11.5346 29.6035 11.5347C29.8616 11.5347 29.8666 11.5346 29.8939 11.7841C29.9806 12.5786 29.9892 13.3712 29.9096 14.1701C29.6564 16.7135 28.5784 18.8548 26.8047 20.6495C25.7975 21.6685 24.6106 22.431 23.265 22.9617Z" fill="#181818"/>
<path d="M38.9502 19.8043C38.9501 21.7888 38.9502 23.7552 38.9497 25.7216C38.9497 25.9621 38.9328 25.9847 38.6975 25.9856C37.8442 25.9888 36.9909 25.986 36.1376 25.9895C36.0164 25.99 35.9654 25.9514 35.9665 25.823C35.9712 25.3088 35.9708 24.7944 35.9668 24.2802C35.9659 24.1611 36.0128 24.1189 36.1269 24.1213C36.3732 24.1265 36.6202 24.1144 36.8657 24.1294C37.052 24.1408 37.1001 24.0697 37.0996 23.8899C37.094 21.9114 37.0952 19.9329 37.0954 17.9545C37.096 12.7028 37.097 7.45104 37.0978 2.19932C37.0979 1.95649 37.0948 1.95243 36.861 1.95164C36.6327 1.95086 36.4036 1.94063 36.1762 1.95514C36.0022 1.96625 35.9628 1.89522 35.9655 1.7354C35.9734 1.26361 35.9755 0.791418 35.9645 0.319746C35.9604 0.139932 36.0277 0.0896012 36.1945 0.0922786C36.8784 0.103248 37.5624 0.105951 38.2464 0.110976C38.4203 0.112254 38.5944 0.115541 38.7681 0.109287C38.914 0.104036 38.9593 0.17711 38.9504 0.309946C38.9463 0.370164 38.95 0.430905 38.95 0.491409C38.9501 6.92298 38.9501 13.3545 38.9502 19.8043Z" fill="#181818"/>
</g>
<defs>
<clipPath id="clip0_29_453">
<rect width="38.9515" height="25.8973" fill="white" transform="translate(0 0.0921783)"/>
</clipPath>
</defs>
</svg>
