<svg width="39" height="26" viewBox="0 0 39 26" fill="none" xmlns="http://www.w3.org/2000/svg">
<g clip-path="url(#clip0_18_1992)">
<path d="M1.86013 6.07294C1.86056 12.0137 1.86094 17.9364 1.86149 23.859C1.86151 24.1165 1.86223 24.1168 2.12086 24.1169C2.36119 24.1169 2.60157 24.1188 2.84184 24.1147C2.9572 24.1127 3.01951 24.1435 3.01815 24.2774C3.01292 24.7916 3.01379 25.3058 3.01716 25.82C3.01795 25.9393 2.96819 25.9779 2.85523 25.9776C1.97802 25.9755 1.10079 25.9782 0.223577 25.9758C0.016316 25.9752 5.50197e-05 25.9498 5.06207e-05 25.7036C-2.08813e-05 21.729 0.000140302 17.7543 0.000140302 13.7797C0.000140843 9.30893 2.14571e-05 4.83821 2.90365e-09 0.367482C-1.11488e-06 0.101997 0.000183231 0.103788 0.25984 0.104108C1.10101 0.105146 1.94218 0.104375 2.78334 0.105154C3.00766 0.105362 3.0149 0.112973 3.01522 0.341362C3.01588 0.801137 3.0088 1.26105 3.01834 1.72062C3.02186 1.8905 2.97703 1.95992 2.79754 1.94939C2.55202 1.93498 2.30465 1.95409 2.05886 1.94222C1.89601 1.93436 1.85617 1.99786 1.85679 2.15279C1.86199 3.45344 1.85997 4.75411 1.86013 6.07294Z" fill="#C5C5C5"/>
<path d="M23.2649 22.9617C22.3989 23.306 21.511 23.5167 20.6057 23.6342C19.9018 23.7256 19.1914 23.6879 18.4843 23.6173C17.3522 23.5042 16.2687 23.2107 15.2341 22.7362C13.2806 21.8404 11.7481 20.4601 10.6102 18.6337C9.91068 17.5108 9.43288 16.2952 9.19718 14.9911C9.01724 13.9955 8.97302 12.9911 9.06545 11.9795C9.19006 10.6155 9.54069 9.31728 10.1732 8.10613C11.346 5.86046 13.0631 4.19087 15.3916 3.18104C16.3248 2.77634 17.2969 2.51042 18.307 2.43227C20.0837 2.2948 21.8112 2.51636 23.4738 3.20586C25.4899 4.04192 27.0921 5.37702 28.3214 7.17922C28.6143 7.60868 28.8698 8.0604 29.0912 8.53139C29.1135 8.57886 29.1525 8.6241 29.1234 8.68521C29.075 8.73342 29.0119 8.71845 28.9542 8.71849C27.578 8.71946 26.2019 8.71947 24.8257 8.71906C24.6827 8.71902 24.4803 8.5558 24.4445 8.41667C24.4228 8.33248 24.486 8.295 24.5356 8.25585C24.7674 8.07318 25.0024 7.89476 25.2347 7.7127C25.2905 7.66896 25.3609 7.6402 25.3952 7.56679C25.3735 7.4737 25.2989 7.41707 25.2378 7.35355C23.966 6.03116 22.4295 5.19812 20.6171 4.96422C17.817 4.60285 15.4599 5.51294 13.5719 7.62347C12.6069 8.70217 11.9824 9.96235 11.7106 11.3928C11.5631 12.1694 11.5562 12.9514 11.6132 13.7385C11.6986 14.9179 12.0398 16.0191 12.6352 17.0293C13.9045 19.1829 15.7653 20.535 18.2183 20.967C20.3278 21.3384 22.2833 20.8804 24.0379 19.6174C25.3012 18.708 26.2346 17.532 26.8441 16.0966C27.0585 15.5916 27.225 15.0696 27.2952 14.5144C27.1783 14.4615 27.0648 14.4642 26.9518 14.4642C24.482 14.4642 22.0121 14.4644 19.5422 14.4645C19.2854 14.4645 19.2843 14.4643 19.2834 14.2016C19.2806 13.4089 19.2803 12.6163 19.2758 11.8236C19.2741 11.5345 19.2699 11.5346 19.5617 11.5346C22.9089 11.5346 26.2562 11.5346 29.6034 11.5347C29.8615 11.5347 29.8666 11.5346 29.8938 11.7841C29.9806 12.5786 29.9891 13.3712 29.9096 14.1701C29.6564 16.7135 28.5784 18.8548 26.8046 20.6495C25.7975 21.6685 24.6106 22.431 23.2649 22.9617Z" fill="#C5C5C5"/>
<path d="M38.9502 19.8043C38.9501 21.7888 38.9502 23.7552 38.9498 25.7216C38.9497 25.9621 38.9329 25.9847 38.6975 25.9856C37.8443 25.9888 36.991 25.986 36.1377 25.9895C36.0164 25.99 35.9654 25.9514 35.9666 25.823C35.9713 25.3088 35.9709 24.7944 35.9669 24.2802C35.966 24.1611 36.0129 24.1189 36.1269 24.1213C36.3732 24.1265 36.6203 24.1144 36.8658 24.1294C37.0521 24.1408 37.1002 24.0697 37.0997 23.8899C37.0941 21.9114 37.0952 19.9329 37.0955 17.9545C37.096 12.7028 37.097 7.45104 37.0979 2.19932C37.0979 1.95649 37.0948 1.95243 36.8611 1.95164C36.6327 1.95086 36.4037 1.94063 36.1763 1.95514C36.0022 1.96625 35.9629 1.89522 35.9656 1.7354C35.9735 1.26361 35.9756 0.791418 35.9646 0.319746C35.9604 0.139932 36.0278 0.0896012 36.1946 0.0922786C36.8785 0.103248 37.5625 0.105951 38.2464 0.110976C38.4204 0.112254 38.5945 0.115541 38.7682 0.109287C38.914 0.104036 38.9594 0.17711 38.9504 0.309946C38.9464 0.370164 38.9501 0.430905 38.9501 0.491409C38.9501 6.92298 38.9502 13.3545 38.9502 19.8043Z" fill="#C5C5C5"/>
</g>
<defs>
<clipPath id="clip0_18_1992">
<rect width="38.9515" height="25.8973" fill="white" transform="translate(0 0.0921783)"/>
</clipPath>
</defs>
</svg>
