<svg width="56" height="34" viewBox="0 0 56 34" fill="none" xmlns="http://www.w3.org/2000/svg">
<path d="M13.3308 9.02198H23.8091V9.85081H14.2913V16.0888H23.2415V16.9177H14.2913V23.7664H23.9182V24.5952H13.3308V9.02198ZM24.7478 9.02198H25.8611L30.7946 15.8707L35.8373 9.02198L42.6962 0.32251L31.4277 16.5905L37.2344 24.5952H36.0774L30.7946 17.3103L25.49 24.5952H24.3548L30.2052 16.5905L24.7478 9.02198ZM37.6492 9.85081V9.02198H49.59V9.85081H44.0889V24.5952H43.1284V9.85081H37.6492Z" fill="white"/>
<path d="M0.222168 9.02197H1.42281L17.9789 33.6776L11.1371 24.5952L1.22634 10.1998L1.18268 24.5952H0.222168V9.02197Z" fill="white"/>
<path d="M49.4933 23.5162C49.6919 23.5162 49.8367 23.3649 49.8367 23.1694C49.8367 22.9738 49.6919 22.8225 49.4933 22.8225C49.2971 22.8225 49.1499 22.9738 49.1499 23.1694C49.1499 23.3649 49.2971 23.5162 49.4933 23.5162ZM50.4371 22.6037C50.4371 23.181 50.8553 23.5581 51.4651 23.5581C52.1145 23.5581 52.507 23.1694 52.507 22.4942V20.1174H51.9837V22.4919C51.9837 22.8667 51.7945 23.0669 51.4604 23.0669C51.1614 23.0669 50.9581 22.8807 50.9511 22.6037H50.4371ZM53.1915 22.5734C53.2289 23.174 53.7311 23.5581 54.4787 23.5581C55.2777 23.5581 55.7776 23.1554 55.7776 22.5129C55.7776 22.0077 55.4926 21.7283 54.8011 21.5677L54.4297 21.4769C53.9905 21.3745 53.8129 21.2371 53.8129 20.9973C53.8129 20.6947 54.0886 20.4968 54.5021 20.4968C54.8946 20.4968 55.1656 20.6901 55.2146 20.9997H55.7239C55.6935 20.434 55.1936 20.0359 54.5091 20.0359C53.7732 20.0359 53.2826 20.434 53.2826 21.0323C53.2826 21.5258 53.5606 21.8191 54.1704 21.9611L54.6049 22.0659C55.0511 22.1707 55.2473 22.3243 55.2473 22.5804C55.2473 22.8784 54.939 23.0949 54.5184 23.0949C54.0676 23.0949 53.7545 22.8923 53.7101 22.5734H53.1915Z" fill="white"/>
</svg>
