<svg width="52" height="56" viewBox="0 0 52 56" fill="none" xmlns="http://www.w3.org/2000/svg">
<path d="M23.7255 0.81499C25.103 0.0265053 26.8972 0.0229438 28.2736 0.81499C35.1978 4.72753 42.1242 8.63394 49.0472 12.5489C50.3493 13.2823 51.2203 14.7315 51.2071 16.2319V39.7713C51.2168 41.3338 50.2597 42.8176 48.8859 43.5344C41.9845 47.4254 35.0866 51.3211 28.1863 55.2121C26.7803 56.016 24.95 55.9541 23.588 55.0843C21.5189 53.8848 19.4463 52.6913 17.377 51.4931C16.9542 51.241 16.4775 51.0404 16.179 50.6304C16.4429 50.2746 16.9148 50.2303 17.2983 50.075C18.162 49.8003 18.9552 49.3595 19.7486 48.9317C19.9493 48.7944 20.1942 48.847 20.3865 48.9699C22.1558 49.9844 23.9095 51.0283 25.6847 52.033C26.0634 52.2517 26.4469 51.9614 26.7706 51.781C33.543 47.9533 40.3238 44.1401 47.0951 40.3112C47.346 40.1905 47.4847 39.9242 47.4643 39.6494C47.469 31.8842 47.4655 24.1177 47.4667 16.3526C47.4954 16.0408 47.3149 15.754 47.0329 15.6264C40.1554 11.7533 33.2815 7.87415 26.4051 3.99999C26.286 3.91809 26.1449 3.87414 26.0003 3.87393C25.8557 3.87372 25.7145 3.91725 25.5951 3.9988C18.7187 7.87415 11.846 11.7568 4.96963 15.6298C4.68867 15.7576 4.5001 16.0396 4.53354 16.3526C4.53473 24.1177 4.53354 31.8842 4.53354 39.6506C4.52162 39.7847 4.55107 39.9192 4.61793 40.036C4.68479 40.1529 4.78585 40.2464 4.9075 40.3041C6.74249 41.3447 8.57984 42.3779 10.416 43.4149C11.4504 43.9717 12.7205 44.3025 13.8602 43.8759C14.866 43.5152 15.5709 42.4889 15.5517 41.421C15.5612 33.7012 15.547 25.9802 15.5589 18.2616C15.5337 17.9189 15.8588 17.6357 16.192 17.668C17.0737 17.662 17.9566 17.6561 18.8383 17.6704C19.2063 17.662 19.4595 18.0311 19.414 18.3763C19.4105 26.145 19.4235 33.9139 19.4081 41.6826C19.4105 43.7531 18.5599 46.0059 16.6447 47.019C14.2854 48.2412 11.3693 47.982 9.03849 46.81C7.02068 45.8029 5.09508 44.6144 3.11308 43.5354C1.73576 42.8225 0.783444 41.3328 0.793139 39.7715V16.2319C0.778695 14.7004 1.68431 13.225 3.02701 12.5022C9.92729 8.60802 16.8264 4.71091 23.7255 0.81499Z" fill="#8CC84B"/>
<path d="M29.7453 17.1208C32.7548 16.9271 35.9766 17.006 38.6847 18.4886C40.7815 19.6248 41.9439 22.0092 41.9809 24.3386C41.9224 24.6528 41.5939 24.8262 41.2939 24.8046C40.4208 24.8034 39.5474 24.8165 38.6742 24.7987C38.3038 24.8129 38.0886 24.4714 38.0421 24.1439C37.7912 23.0294 37.1833 21.9255 36.1343 21.3879C34.5239 20.5816 32.6566 20.6222 30.9006 20.639C29.6186 20.7071 28.2401 20.8181 27.1541 21.5719C26.3203 22.143 26.067 23.2957 26.3646 24.2241C26.6452 24.8907 27.4146 25.1058 28.0442 25.304C31.6711 26.2526 35.5144 26.1582 39.0719 27.4065C40.5448 27.9154 41.9857 28.9047 42.4898 30.4469C43.1493 32.5137 42.8602 34.9843 41.3897 36.6435C40.1972 38.009 38.4603 38.7522 36.7281 39.1558C34.4235 39.6697 32.032 39.6827 29.6917 39.4546C27.491 39.2037 25.201 38.6255 23.5021 37.1261C22.0494 35.8648 21.3399 33.8994 21.4103 32.0025C21.4271 31.6821 21.7461 31.4587 22.053 31.4851C22.9323 31.4779 23.8116 31.4756 24.6909 31.4862C25.0421 31.4611 25.3025 31.7646 25.3205 32.0957C25.4827 33.1576 25.8818 34.2722 26.8078 34.9018C28.5949 36.0547 30.8373 35.9758 32.8836 36.008C34.5789 35.9328 36.4819 35.9101 37.8654 34.7896C38.5953 34.1505 38.8116 33.0812 38.6143 32.1614C38.4006 31.3847 37.5882 31.0229 36.8905 30.7862C33.3102 29.6536 29.4239 30.0646 25.8782 28.7838C24.4388 28.2751 23.0468 27.3133 22.4938 25.8345C21.7221 23.7415 22.0757 21.1527 23.7004 19.5494C25.2844 17.9546 27.5712 17.3404 29.7453 17.1206V17.1208Z" fill="#8CC84B"/>
</svg>
