<svg width="58" height="62" viewBox="0 0 58 62" fill="none" xmlns="http://www.w3.org/2000/svg">
<path d="M29.0002 35.8979C31.7052 35.8979 33.8981 33.705 33.8981 31C33.8981 28.2949 31.7052 26.1021 29.0002 26.1021C26.2952 26.1021 24.1023 28.2949 24.1023 31C24.1023 33.705 26.2952 35.8979 29.0002 35.8979Z" fill="#61DAFB"/>
<path fill-rule="evenodd" clip-rule="evenodd" d="M5.98047 28.4196C4.87132 29.4208 4.50429 30.2958 4.50429 31C4.50429 31.7042 4.87132 32.5792 5.98047 33.5805C7.08943 34.5816 8.7944 35.5649 11.0532 36.4274C15.5585 38.1476 21.9032 39.249 29 39.249C36.0969 39.249 42.4415 38.1476 46.9469 36.4274C49.2057 35.5649 50.9106 34.5816 52.0196 33.5805C53.1287 32.5792 53.4958 31.7042 53.4958 31C53.4958 30.2958 53.1287 29.4208 52.0196 28.4196C50.9106 27.4185 49.2057 26.4351 46.9469 25.5726C42.4415 23.8524 36.0969 22.751 29 22.751C21.9032 22.751 15.5585 23.8524 11.0532 25.5726C8.7944 26.4351 7.08943 27.4185 5.98047 28.4196ZM9.77927 22.2361C14.786 20.3245 21.582 19.1796 29 19.1796C36.418 19.1796 43.2141 20.3245 48.2208 22.2361C50.718 23.1896 52.8619 24.3685 54.4127 25.7685C55.9634 27.1684 57.0672 28.9332 57.0672 31C57.0672 33.0668 55.9634 34.8317 54.4127 36.2315C52.8619 37.6315 50.718 38.8104 48.2208 39.7639C43.2141 41.6755 36.418 42.8205 29 42.8205C21.582 42.8205 14.786 41.6755 9.77927 39.7639C7.28206 38.8104 5.1382 37.6315 3.58733 36.2315C2.03666 34.8317 0.932861 33.0668 0.932861 31C0.932861 28.9332 2.03666 27.1684 3.58733 25.7685C5.1382 24.3685 7.28206 23.1896 9.77927 22.2361Z" fill="#61DAFB"/>
<path fill-rule="evenodd" clip-rule="evenodd" d="M19.7249 9.77419C18.3032 9.31427 17.3619 9.43392 16.752 9.78601C16.1422 10.1381 15.5679 10.8935 15.2554 12.3547C14.9429 13.8156 14.9437 15.7838 15.3262 18.1712C16.0891 22.9331 18.3076 28.9784 21.856 35.1245C25.4045 41.2705 29.5306 46.2144 33.2731 49.256C35.1494 50.781 36.8535 51.7658 38.2749 52.2257C39.6966 52.6856 40.6379 52.566 41.2478 52.2139C41.8576 51.8618 42.4319 51.1064 42.7444 49.6452C43.0569 48.1843 43.0561 46.2161 42.6736 43.8287C41.9106 39.0668 39.6922 33.0215 36.1438 26.8754C32.5953 20.7294 28.4691 15.7855 24.7267 12.7438C22.8504 11.2189 21.1463 10.234 19.7249 9.77419ZM26.9793 9.97234C31.1381 13.3524 35.5277 18.6655 39.2367 25.0897C42.9457 31.5139 45.3522 37.9719 46.2 43.2637C46.6229 45.9031 46.6738 48.3491 46.2368 50.3922C45.7999 52.4351 44.8234 54.2734 43.0335 55.3068C41.2436 56.3402 39.1633 56.2667 37.1756 55.6237C35.1878 54.9806 33.0949 53.7135 31.0205 52.0275C26.8617 48.6475 22.4721 43.3343 18.7631 36.9102C15.0541 30.486 12.6476 24.028 11.7998 18.7362C11.3769 16.0968 11.3259 13.6507 11.7629 11.6076C12.1999 9.56481 13.1764 7.72648 14.9663 6.69306C16.7562 5.65965 18.8365 5.73315 20.8242 6.37616C22.812 7.01925 24.9049 8.28643 26.9793 9.97234Z" fill="#61DAFB"/>
<path fill-rule="evenodd" clip-rule="evenodd" d="M42.7446 12.3546C42.4321 10.8934 41.8578 10.1381 41.248 9.78599C40.6381 9.4339 39.6968 9.31425 38.2752 9.77418C36.8537 10.234 35.1496 11.2189 33.2733 12.7438C29.5309 15.7854 25.4047 20.7294 21.8562 26.8754C18.3078 33.0215 16.0894 39.0668 15.3264 43.8286C14.9439 46.216 14.9431 48.1843 15.2556 49.6452C15.5681 51.1064 16.1424 51.8618 16.7522 52.2139C17.3621 52.566 18.3034 52.6856 19.7251 52.2257C21.1465 51.7658 22.8506 50.781 24.7269 49.256C28.4694 46.2144 32.5956 41.2705 36.144 35.1244C39.6924 28.9784 41.9109 22.933 42.6738 18.1712C43.0563 15.7838 43.0571 13.8156 42.7446 12.3546ZM46.2002 18.7362C45.3524 24.0279 42.9459 30.486 39.2369 36.9102C35.5279 43.3343 31.1383 48.6474 26.9795 52.0275C24.9051 53.7134 22.8122 54.9806 20.8244 55.6237C18.8367 56.2667 16.7565 56.3402 14.9665 55.3068C13.1766 54.2734 12.2001 52.4351 11.7632 50.3922C11.3262 48.3491 11.3771 45.903 11.8 43.2637C12.6478 37.9719 15.0543 31.5139 18.7633 25.0897C22.4723 18.6655 26.8619 13.3524 31.0208 9.97232C33.0951 8.28642 35.188 7.01923 37.1759 6.37614C39.1635 5.73313 41.2438 5.65963 43.0337 6.69305C44.8236 7.72646 45.8001 9.5648 46.2371 11.6076C46.6741 13.6507 46.6231 16.0968 46.2002 18.7362Z" fill="#61DAFB"/>
</svg>
